<?xml version="1.0" standalone="no"?>
<!DOCTYPE svg PUBLIC "-//W3C//DTD SVG 1.1//EN" "http://www.w3.org/Graphics/SVG/1.1/DTD/svg11.dtd" >
<svg xmlns="http://www.w3.org/2000/svg" xmlns:xlink="http://www.w3.org/1999/xlink" version="1.1">
<metadata>
Created by FontForge 20190801 at Mon Apr  4 09:49:24 2005
 By Jimmy Wärting
Copyright (c) Anatole &#38;A.Gophmann, 2005. All rights reserved.
</metadata>
<defs>
<font id="Elzevir" horiz-adv-x="2048" >
  <font-face 
    font-family="Elzevir"
    font-weight="400"
    font-stretch="normal"
    units-per-em="2048"
    panose-1="2 11 6 3 5 3 2 2 2 4"
    ascent="1638"
    descent="-410"
    x-height="725"
    cap-height="1980"
    bbox="-456.625 -941.125 4220.69 2067.38"
    underline-thickness="0"
    underline-position="0"
    unicode-range="U+0020-203A"
  />
<missing-glyph 
d="M1963 1314q-133 -123 -177.5 -164t-152.5 -206q-75 -114 -129.5 -201.5t-125.5 -204.5q-35 -57 -82.5 -147.5t-53.5 -156.5q-3 -35 -7.5 -70t29.5 -53q57 -31 157.5 16t144.5 78q54 39 98.5 83.5t90.5 92.5q14 16 32 1q16 -16 0 -32q-43 -47 -85.5 -88.5t-93.5 -80.5
q-87 -68 -247 -157t-266 10q-54 51 -31.5 138.5t46.5 150.5q4 13 11 28q-168 -180 -365 -285t-391 -66q-255 50 -310 253t20 433q74 228 215 420t166 221q268 300 513 442t453 183q304 58 511 -28.5t274 -143.5q18 -14 25 -7q21 23 41 26.5t43 18.5q15 10 33 -14
q14 -22 0 -37q-24 -27 -105.5 -58t-123.5 -49q-24 -10 -47 24q-81 109 -188.5 160.5t-259.5 62.5q-133 9 -260 -25t-245 -94q-98 -51 -188 -115t-171 -131q-139 -117 -261 -263.5t-204 -308.5q-54 -106 -86.5 -220.5t-28.5 -227.5q2 -88 33.5 -169t103.5 -144
q96 -86 235 -105t240 36q140 77 263 211.5t225 308.5q36 61 92.5 191.5t74.5 259.5q15 120 -24.5 211t-162.5 103q-115 11 -226 -40.5t-202 -189.5q-91 -139 -63.5 -235t142.5 -108q89 -9 149.5 34t133.5 136q11 14 42 -21q-67 -97 -119 -165.5t-118 -99.5
q-74 -36 -175.5 -23.5t-142.5 93.5q-76 145 71 368q67 102 190 210t288 140q192 27 288 -86q51 -62 57 -133t-3 -146q-9 -69 -39 -157q116 129 262 247q12 10 57.5 48t88.5 61q26 13 30 -10q1 -24 -9 -34z" />
    <glyph glyph-name=".notdef" 
d="M1963 1314q-133 -123 -177.5 -164t-152.5 -206q-75 -114 -129.5 -201.5t-125.5 -204.5q-35 -57 -82.5 -147.5t-53.5 -156.5q-3 -35 -7.5 -70t29.5 -53q57 -31 157.5 16t144.5 78q54 39 98.5 83.5t90.5 92.5q14 16 32 1q16 -16 0 -32q-43 -47 -85.5 -88.5t-93.5 -80.5
q-87 -68 -247 -157t-266 10q-54 51 -31.5 138.5t46.5 150.5q4 13 11 28q-168 -180 -365 -285t-391 -66q-255 50 -310 253t20 433q74 228 215 420t166 221q268 300 513 442t453 183q304 58 511 -28.5t274 -143.5q18 -14 25 -7q21 23 41 26.5t43 18.5q15 10 33 -14
q14 -22 0 -37q-24 -27 -105.5 -58t-123.5 -49q-24 -10 -47 24q-81 109 -188.5 160.5t-259.5 62.5q-133 9 -260 -25t-245 -94q-98 -51 -188 -115t-171 -131q-139 -117 -261 -263.5t-204 -308.5q-54 -106 -86.5 -220.5t-28.5 -227.5q2 -88 33.5 -169t103.5 -144
q96 -86 235 -105t240 36q140 77 263 211.5t225 308.5q36 61 92.5 191.5t74.5 259.5q15 120 -24.5 211t-162.5 103q-115 11 -226 -40.5t-202 -189.5q-91 -139 -63.5 -235t142.5 -108q89 -9 149.5 34t133.5 136q11 14 42 -21q-67 -97 -119 -165.5t-118 -99.5
q-74 -36 -175.5 -23.5t-142.5 93.5q-76 145 71 368q67 102 190 210t288 140q192 27 288 -86q51 -62 57 -133t-3 -146q-9 -69 -39 -157q116 129 262 247q12 10 57.5 48t88.5 61q26 13 30 -10q1 -24 -9 -34z" />
    <glyph glyph-name="NULL" horiz-adv-x="0" 
 />
    <glyph glyph-name="nonmarkingreturn" 
 />
    <glyph glyph-name="space" unicode=" " horiz-adv-x="800" 
 />
    <glyph glyph-name="comma" unicode="," horiz-adv-x="391" 
d="M224 198q71 -17 83 -76q16 -77 -62 -151q-57 -56 -136 -96.5t-125 -60.5q-39 -15 -34 5q4 21 33 35q35 17 101 61.5t84 92.5q-80 29 -62 114q21 95 118 76z" />
    <glyph glyph-name="period" unicode="." horiz-adv-x="391" 
d="M176 3q-99 0 -99 100q0 99 99 99t99 -99q0 -100 -99 -100z" />
    <glyph glyph-name="colon" unicode=":" horiz-adv-x="530" 
d="M537 757q99 0 99 -99t-99 -99q-100 0 -100 99t100 99zM169 202q99 0 99 -99q0 -100 -99 -100t-99 100q0 99 99 99z" />
    <glyph glyph-name="semicolon" unicode=";" horiz-adv-x="530" 
d="M551 757q99 0 99 -99t-99 -99t-99 99t99 99zM198 198q70 -16 84 -76q16 -75 -62 -151q-57 -56 -136.5 -96.5t-125.5 -60.5q-37 -15 -34 5q4 20 34 35q36 17 101.5 61.5t82.5 92.5q-80 30 -61 114q19 96 117 76z" />
    <glyph glyph-name="one" unicode="1" horiz-adv-x="1036" 
d="M191 202q99 0 99 -99q0 -100 -99 -100t-99 100q0 99 99 99zM1428 1867l-1034 -1542q-40 -59 -94 -53q-49 4 6 102l856 1526q24 42 79 45t80 1q31 -4 83 -20.5t24 -58.5z" />
    <glyph glyph-name="question" unicode="?" horiz-adv-x="1036" 
d="M1200 1219q-79 -136 -200 -211t-241 -137t-216 -134t-124 -200q-8 -34 -8 -72t33 -60q53 -38 158 -2.5t152 61.5q35 20 59 8q24 -11 -20 -37q-94 -57 -263 -128.5t-263 41.5q-65 65 -5 195q72 156 192.5 214.5t261.5 148.5q111 70 216 168t168 237q41 91 53 185.5
t-25 177.5q-57 125 -174.5 166.5t-246.5 26.5q-86 -10 -172 -57q-57 -33 -135 -88t-141 -136q-64 -85 -91 -162q-49 -134 4 -243q55 -121 203 -138q86 -10 169.5 24.5t152.5 131.5q69 96 49.5 164.5t-105.5 78.5q-68 7 -114 -22t-100 -93q-9 -10 -31 15q51 67 90 114.5
t89 69.5q55 24 131.5 13t106.5 -68q55 -105 -55 -258q-52 -72 -145 -153.5t-217 -101.5q-57 -9 -110 2.5t-88 28.5q-109 50 -127 182q-29 214 127 402.5t342 281.5q107 53 221 73q133 21 279 -16.5t218 -158.5q90 -155 47 -289t-105 -245zM218 197q97 -11 87 -110
q-11 -96 -110 -87q-99 10 -87 110q10 97 110 87z" />
    <glyph glyph-name="quotesinglbase" unicode="&#x201a;" horiz-adv-x="341" 
d="M194 198q70 -16 84 -76q16 -75 -62 -151q-57 -56 -118.5 -91t-107.5 -55q-37 -15 -34 5q4 20 34 35q77 37 97 141q6 36 -7 50.5t-4 65.5q21 95 118 76z" />
    <glyph glyph-name="quotedblbase" unicode="&#x201e;" horiz-adv-x="594" 
d="M218 198q70 -16 84 -76q16 -75 -62 -151q-57 -56 -118.5 -91t-108.5 -55q-36 -15 -33 5q4 20 33 35q78 36 98 141q6 36 -7 50.5t-4 65.5q21 95 118 76zM465 198q71 -17 83 -76q16 -77 -62 -151q-57 -56 -118 -91t-108 -55q-38 -15 -34 5q3 21 34 35q78 36 98 141
q6 36 -7 50.5t-4 65.5q21 95 118 76z" />
    <glyph glyph-name="quoteleft" unicode="&#x2018;" horiz-adv-x="505" 
d="M165 798q-69 14 -83 76q-17 74 62 151q57 56 118 91t109 55q37 16 34 -5q-4 -21 -34 -34q-79 -38 -99 -143q-7 -36 6.5 -51t4.5 -65q-21 -97 -118 -75z" />
    <glyph glyph-name="quoteright" unicode="&#x2019;" horiz-adv-x="505" 
d="M348 1175q69 -15 84 -76q16 -75 -62 -151q-57 -57 -118 -92t-109 -55q-38 -16 -34 6q4 20 34 34q78 35 98 143q6 35 -7 50t-3 65q19 97 117 76z" />
    <glyph glyph-name="quotedblleft" unicode="&#x201c;" horiz-adv-x="682" 
d="M413 798q-71 14 -83 76q-17 75 62 151q56 56 117 91t109 55q37 16 34 -5q-4 -22 -34 -34q-79 -38 -98 -143q-7 -36 6.5 -51t4.5 -65q-22 -97 -118 -75zM166 798q-71 14 -83 76q-17 75 62 151q57 56 118 91t109 55q39 17 33 -5q-4 -22 -33 -34q-80 -39 -99 -143
q-7 -36 6.5 -51t4.5 -65q-22 -97 -118 -75z" />
    <glyph glyph-name="quotedblright" unicode="&#x201d;" horiz-adv-x="720" 
d="M334 1175q70 -15 83 -76q16 -76 -62 -151q-57 -57 -118 -92t-109 -55q-38 -16 -34 6q6 21 34 34q77 35 99 143q6 35 -7 50t-4 65q19 97 118 76zM581 1175q68 -15 83 -76q16 -75 -62 -151q-57 -57 -118 -92t-109 -55q-38 -16 -34 6q4 20 34 34q77 35 99 143q6 35 -7.5 50
t-3.5 65q19 97 118 76z" />
    <glyph glyph-name="hyphen" unicode="-" horiz-adv-x="589" 
d="M111 410v87h450v-87h-450z" />
    <glyph glyph-name="endash" unicode="&#x2013;" horiz-adv-x="751" 
d="M111 410v87h605v-87h-605z" />
    <glyph glyph-name="emdash" unicode="&#x2014;" horiz-adv-x="941" 
d="M111 410v87h786v-87h-786z" />
    <glyph glyph-name="guilsinglleft" unicode="&#x2039;" horiz-adv-x="862" 
d="M163 417q151 45 320 104.5t338 128.5l-60 -96q-141 -56 -281 -102.5t-269 -78.5q156 -57 341 -153l-50 -79q-208 111 -389 173q-43 14 -17.5 52t67.5 51z" />
    <glyph glyph-name="guilsinglright" unicode="&#x203a;" horiz-adv-x="872" 
d="M739 374q-152 -46 -321 -105t-337 -128l60 96q140 55 280 101.5t270 79.5q-157 56 -341 153l50 79q207 -112 389 -173q42 -15 16.5 -53t-66.5 -50z" />
    <glyph glyph-name="guillemotleft" unicode="&#xab;" horiz-adv-x="842" 
d="M144 417q151 45 320 104.5t338 128.5l-60 -96q-141 -56 -281 -102.5t-269 -78.5q156 -57 341 -153l-50 -79q-208 111 -389 173q-43 14 -17.5 52t67.5 51zM440 382q78 24 166 54.5t176 66.5l-47 -76q-73 -30 -105.5 -40t-99.5 -26q42 -16 63.5 -24.5t66.5 -32.5l-44 -66
q-106 57 -202 90q-23 7 -9.5 27t35.5 27z" />
    <glyph glyph-name="guillemotright" unicode="&#xbb;" horiz-adv-x="865" 
d="M732 374q-152 -46 -320.5 -105t-337.5 -128l60 96q140 55 280 101.5t271 79.5q-162 57 -341 153l49 79q207 -112 389 -173q42 -15 17 -53t-67 -50zM436 409q-79 -24 -167 -54.5t-175 -66.5l47 76q72 29 104.5 39t100.5 27q-43 15 -64 24t-66 33l44 66q107 -58 202 -90
q22 -8 8.5 -28t-34.5 -26z" />
    <glyph glyph-name="asterisk" unicode="*" horiz-adv-x="771" 
d="M559 1403q58 -14 69 -63q13 -61 -51 -125q-39 -39 -81 -65t-78 -43q52 -24 123 0q27 9 32.5 25t44.5 30q77 25 103 -52q17 -57 -20 -91q-47 -43 -133 -18q-54 14 -97.5 37t-75.5 46q4 -59 61 -106q22 -20 38 -16.5t49 -23.5q59 -55 5 -115q-41 -44 -88 -28
q-61 18 -83 107q-14 52 -16 101.5t2 89.5q-48 -32 -62 -106q-6 -30 5.5 -42t3.5 -53q-17 -80 -97 -63q-58 12 -68 63q-14 62 51 125q39 38 80.5 64t78.5 44q-54 24 -123 0q-29 -10 -34 -26t-44 -29q-79 -26 -102 53q-19 54 19 90q47 41 134 18q52 -15 96 -38t77 -45
q-5 58 -61 106q-23 19 -39.5 16t-47.5 24q-61 55 -6 115q40 43 89 28q59 -20 82 -106q14 -54 16 -103.5t-1 -88.5q48 33 61 106q6 29 -5.5 41.5t-3.5 53.5q17 79 97 63z" />
    <glyph glyph-name="backslash" unicode="\" horiz-adv-x="834" 
d="M805 51q33 -52 -20 -51q-57 6 -66 25l-626 1004q-5 4 44 9q48 2 57 -11z" />
    <glyph glyph-name="slash" unicode="/" horiz-adv-x="834" 
d="M100 51l1124 976q9 8 6 9.5t30 1.5q86 -4 76 -9l-1150 -1004q-6 -6 -9.5 -14.5t-40.5 -10.5q-38 0 -56 9t20 42z" />
    <glyph glyph-name="quotesingle" unicode="'" horiz-adv-x="309" 
d="M190 1175q49 0 77 -34q26 -33 28 -75q-6 -68 -40 -113.5t-34 -132.5q-2 -32 -25 -36q-35 -5 -37 36q-1 88 -34.5 133t-39.5 113q3 42 28 75q29 34 77 34z" />
    <glyph glyph-name="quotedbl" unicode="&#x22;" horiz-adv-x="570" 
d="M438 1175q49 0 77 -34q24 -31 28 -75q-6 -68 -40 -113.5t-34 -132.5q-2 -32 -25 -36q-35 -5 -37 36q-1 88 -35 133t-39 113q3 44 28 75q27 34 77 34zM190 1175q49 0 77 -34q26 -33 28 -75q-6 -68 -40 -113.5t-34 -132.5q-2 -32 -25 -36q-35 -5 -37 36q-1 88 -34.5 133
t-39.5 113q3 42 28 75q29 34 77 34z" />
    <glyph glyph-name="asciitilde" unicode="~" horiz-adv-x="738" 
d="M99 497q69 58 158 51.5t170 -51.5q80 -45 140.5 -28t135.5 64v-87q-60 -35 -151.5 -57.5t-166.5 36.5t-143 59.5t-143 -74.5v87z" />
    <glyph glyph-name="at" unicode="@" horiz-adv-x="1302" 
d="M517 -55q-295 0 -423.5 250.5t-17.5 604.5q66 210 202.5 390t313.5 300q207 140 400.5 165.5t310.5 -19.5q97 -38 154 -122q110 -167 93 -334t-102.5 -310.5t-209.5 -252t-226 -156.5q-108 -52 -153 -14t21 144l86 138q9 12 5 17q-3 4 -11 -5q-78 -90 -197 -203.5
t-207 -113.5q-129 0 -158 90.5t48 248.5q75 157 246 278.5t299 121.5q152 0 173 -119l63 95q8 14 56 11q46 -4 44 -9l-326 -567q-10 -16 -23 -37t-6 -27q73 2 203.5 117.5t219.5 277.5q56 102 69 239q16 188 -51 315q-37 67 -119 94q-120 37 -288.5 2t-362.5 -181
q-163 -122 -291.5 -286t-173.5 -319q-75 -249 -39 -448t196 -275q123 -57 309 -8.5t369 162.5q50 32 56 30.5t16 -10.5l85 -86q5 -6 -15.5 -17.5t-29.5 -17.5q-16 -12 -29 3.5t-27 8.5q-141 -79 -289 -122.5t-263 -43.5zM915 751q87 96 156.5 173.5t66.5 84.5q-6 9 -36 -1.5
t-53 -13.5q-9 -2 -6 5.5t-4 15.5q3 31 -9 59.5t-64 28.5q-107 0 -226 -140t-173 -252q-90 -184 -9 -212q36 -14 72 4.5t72 43.5q61 42 117 101t96 103z" />
    <glyph glyph-name="afii10017" unicode="&#x410;" horiz-adv-x="1821" 
d="M2029 1314q-133 -123 -177.5 -164t-152.5 -206q-75 -114 -129.5 -201.5t-125.5 -204.5q-35 -57 -82.5 -147.5t-53.5 -156.5q-3 -35 -7.5 -70t29.5 -53q57 -31 157.5 16t144.5 78q54 39 98.5 83.5t90.5 92.5q14 16 32 1q16 -16 0 -32q-43 -47 -85.5 -88.5t-93.5 -80.5
q-87 -68 -247 -157t-266 10q-54 51 -31.5 138.5t46.5 150.5q4 13 11 28q-168 -180 -365 -285t-391 -66q-255 50 -310 253t20 433q74 228 215 420t166 221q268 300 513 442t453 183q304 58 511 -28.5t274 -143.5q18 -14 25 -7q21 23 41 26.5t43 18.5q15 10 33 -14
q14 -22 0 -37q-24 -27 -105.5 -58t-123.5 -49q-24 -10 -47 24q-81 109 -188.5 160.5t-259.5 62.5q-133 9 -260 -25t-245 -94q-98 -51 -188 -115t-171 -131q-139 -117 -261 -263.5t-204 -308.5q-54 -106 -86.5 -220.5t-28.5 -227.5q2 -88 33.5 -169t103.5 -144
q96 -86 235 -105t240 36q140 77 263 211.5t225 308.5q36 61 92.5 191.5t74.5 259.5q15 120 -24.5 211t-162.5 103q-115 11 -226 -40.5t-202 -189.5q-91 -139 -63.5 -235t142.5 -108q89 -9 149.5 34t133.5 136q11 14 42 -21q-67 -97 -119 -165.5t-118 -99.5
q-74 -36 -175.5 -23.5t-142.5 93.5q-76 145 71 368q67 102 190 210t288 140q192 27 288 -86q51 -62 57 -133t-3 -146q-9 -69 -39 -157q116 129 262 247q12 10 57.5 48t88.5 61q26 13 30 -10q1 -24 -9 -34z" />
    <glyph glyph-name="afii10018" unicode="&#x411;" horiz-adv-x="2705" 
d="M2097 14q-124 0 -201 65.5t-101 151.5q-55 183 82 377q80 112 202.5 173t232.5 -14q63 -45 59 -165.5t-86 -217.5q-15 -18 -36 -4t-10 32q15 26 33.5 68.5t16.5 83.5q-4 67 -60 109q-78 53 -195 2q-77 -34 -125.5 -123t-37.5 -170q14 -104 113 -182q52 -42 133.5 -47
t103.5 -2q197 20 341 199q108 134 136 320q20 138 -46 254.5t-176 170.5q-128 62 -274 24.5t-247 -127.5q-73 -64 -188 -196q-52 -60 -95 -116t-84 -123l-81 -132q-91 -148 -217.5 -253t-336.5 -142h-2.5h-2t-1.5 -0.5t-1.5 -0.5h-1.5h-1.5t-1.5 -0.5t-1.5 -0.5h-1.5t-6 -1
t-10 -1q-122 -17 -268 -6.5t-253 54.5q-66 26 -120 77t-95 107q-69 93 -84 207t36 219q61 127 188 215q172 121 382 114q92 -3 188 -37t164 -98q63 -63 79 -151q18 -120 -43.5 -212t-163.5 -133q-104 -43 -255 -24t-187 153q-15 57 1.5 121t71.5 99q20 12 59 24.5t80 5.5
q14 -3 12 -21.5t-17 -22.5q-31 -9 -49 -16t-37 -43q-35 -59 -16 -124q8 -30 26.5 -62.5t48.5 -45.5q115 -52 222 17q83 52 116 161q30 103 -12 183q-57 106 -173 151t-228 26q-169 -30 -260 -146.5t-92 -281.5q-2 -114 53.5 -232t154.5 -176q67 -40 148.5 -54t163.5 -13
q46 0 90 3q1 1 3 1h3h3h3q119 9 227.5 99.5t192.5 195.5q57 72 99 136.5t81 129.5q105 180 212.5 360t215.5 358q58 96 111 182t134 167q39 32 138.5 34.5t144.5 2.5l-22 -29q-24 -4 -59.5 -12t-53.5 -20q-78 -66 -167 -228.5t-158 -274.5l-128 -209q-5 -8 -3 -16q2 -9 10 1
q126 139 261 237.5t306 106.5q213 0 318.5 -186t41.5 -450q-66 -264 -261.5 -450t-408.5 -186zM3227 1999q-30 -67 -78 -110q-59 -50 -135.5 -63.5t-149.5 -13.5q-128 0 -255 17.5t-253 38.5q-144 22 -289.5 41.5t-290.5 22.5q-63 1 -124 -0.5t-121 -8.5
q-97 -11 -197.5 -44.5t-181.5 -92.5q-68 -49 -87 -143.5t24 -145.5q42 -59 106.5 -58.5t122.5 42.5q18 12 31 -5q13 -19 -5 -32q-51 -38 -107 -60t-121 -11q-81 12 -121 71.5t-32 138.5q9 96 94 181q90 90 216.5 140t252.5 65q61 6 129.5 16t131.5 10q232 -5 477.5 -13
t476.5 -23q124 -9 270.5 -12t173.5 70q9 20 30 12q20 -9 12 -30z" />
    <glyph glyph-name="afii10019" unicode="&#x412;" horiz-adv-x="2959" 
d="M453 136q84 -50 184.5 -67t202.5 -17q76 2 113 5h3h4q2 0 4 1h3q147 11 293 77t263 181q130 127 261 309.5t258 380t248 391t233 343.5q3 4 4 14.5t-11 4.5q-43 -26 -129 -67t-177.5 -82t-169.5 -74t-103 -42q-19 -7 -26 20q-7 24 6 39q20 2 123.5 45t227 99t236 112
t152.5 85q-1 -1 31 9l108 5l-3 -18l-204 -279q-77 -104 -150 -221t-145 -239q83 95 167.5 188.5t172.5 185.5q83 86 168 170t193 141q91 48 193.5 76.5t190.5 24.5q57 -4 115.5 -18.5t106.5 -47.5q97 -70 115 -173q20 -107 -45 -232q-72 -136 -201 -241q-90 -75 -197.5 -134
t-212.5 -107q83 -167 31 -377q-65 -264 -275.5 -447.5t-423.5 -183.5q-123 0 -208 61.5t-118 146.5q-33 83 -9 179t84 182q65 93 182.5 134.5t229.5 -36.5q63 -45 45.5 -151.5t-72.5 -161.5q-17 -17 -37 -3.5t-9 31.5q15 26 35 62.5t18 77.5q-4 83 -67.5 114.5t-132.5 -13.5
q-70 -45 -111.5 -125t-47.5 -165q-8 -112 52 -191t174 -85q82 -6 161.5 33t133.5 100q33 37 63 78t59 77q109 133 137 321q21 153 -27 293q-44 -12 -114.5 -22t-142.5 -9q-69 0 -127.5 12t-86.5 43q-60 63 -2.5 157t223.5 101q235 0 361 -194q89 37 167 86q131 82 235 192
q166 177 70 409q-53 126 -186 145q-67 9 -140 -9t-137 -51q-140 -72 -272.5 -210t-237.5 -252q-108 -118 -210 -237.5t-209 -236.5q-12 -21 -24.5 -41t-24.5 -40q-85 -135 -178 -257t-201 -218t-267 -175.5t-347 -112.5q-1 -1 -4 -1q-1 0 -2 -0.5t-2.5 -0.5t-2.5 -1h-2.5h-2
t-1.5 -0.5t-2 -0.5q-12 -2 -19 -2q-151 -20 -332 -7t-313 66q-82 33 -149 96.5t-118 132.5q-87 114 -104.5 255.5t45.5 273.5q73 154 233 266q214 151 473 142q177 -7 311 -65.5t187 -179.5q52 -122 -2.5 -281.5t-231.5 -231.5q-57 -23 -128.5 -36.5t-141.5 -9.5
q-90 5 -165 46t-99 134q-19 72 1 151.5t89 121.5q25 15 73 31t99 7q18 -3 16 -26t-22 -29q-39 -12 -61 -20t-46 -53q-42 -75 -19 -154q35 -133 165 -145q102 -10 204 54q111 71 143 178q37 128 -16 228q-69 131 -213 186.5t-283 31.5q-210 -37 -322.5 -181.5t-114.5 -348.5
q-1 -141 67 -287.5t191 -218.5zM2908 979q-47 97 -120 144q-72 43 -159 36q-78 -8 -95 -64q-17 -55 24 -93q25 -24 65 -37q66 -21 147 -11.5t138 25.5z" />
    <glyph glyph-name="afii10020" unicode="&#x413;" horiz-adv-x="1497" 
d="M406 98q111 -66 288 -71t299 70q69 42 131.5 105t114.5 129q57 72 99.5 136t81.5 130q205 350 428 717q58 96 111 182.5t134 166.5q39 32 139 35t144 3l-22 -29q-24 -5 -59.5 -13t-53.5 -20q-78 -66 -166.5 -228t-157.5 -275l-455 -741q-77 -125 -177.5 -220t-254.5 -144
q-158 -50 -346 -46.5t-328 59.5q-66 27 -120 77.5t-95 106.5q-69 93 -83.5 207t36.5 220q59 125 187 215q174 121 382 114q92 -4 188 -38t164 -98q65 -65 79 -150q18 -120 -43 -212t-163 -134q-105 -42 -256 -23.5t-186 152.5q-16 57 0.5 121t71.5 99q21 12 59.5 24.5
t79.5 6.5q14 -3 12 -21.5t-17 -23.5q-31 -9 -49 -16t-38 -43q-33 -59 -15 -124q8 -30 26.5 -62.5t48.5 -45.5q115 -52 222 17q83 52 116 161q30 104 -13 184q-56 106 -172 151t-228 25q-169 -30 -260 -146.5t-92 -281.5q-1 -114 54 -232t154 -176zM3170 1954
q-30 -69 -78 -109q-59 -51 -135 -64.5t-150 -12.5q-128 0 -255 17t-252 38q-144 23 -290 42t-291 22q-143 3 -245 -8q-97 -12 -197 -45.5t-181 -91.5q-68 -50 -87 -144t24 -145q42 -59 106.5 -59t121.5 42q18 14 32 -5q13 -18 -5 -32q-52 -38 -107.5 -59.5t-121.5 -11.5
q-81 12 -121 71.5t-31 138.5q9 97 93 181q90 91 217 140.5t252 64.5q62 7 130.5 16.5t131.5 9.5q231 -4 477 -12.5t477 -23.5q123 -9 270 -11.5t174 69.5q7 21 30 12q21 -10 11 -30z" />
    <glyph glyph-name="afii10021" unicode="&#x414;" horiz-adv-x="1885" 
d="M1060 1968q449 54 761 -151t327 -688q7 -256 -135 -488t-367 -388q-135 -93 -299.5 -157t-344.5 -82q-198 -18 -396 23t-348 152q-26 17 -123 -46q-24 -15 -38 2t-5 26q43 44 100 86.5t116 91.5q26 20 71 -16q257 -209 582 -227q360 -20 651 201q170 129 272.5 317.5
t102.5 404.5q0 366 -236 599q-125 122 -303.5 189t-376.5 58q-456 -21 -735 -375q-92 -117 -83 -266q17 -271 216.5 -351.5t430.5 91.5q132 99 128.5 211.5t-107.5 163.5q-81 39 -142 6.5t-161 -95.5q-9 -6 -26 5.5t-5 28.5q54 78 144.5 126.5t167.5 57.5q81 8 163.5 -31
t94.5 -129q9 -73 -31 -175t-143 -179q-128 -96 -280 -154t-297 -25q-191 42 -259.5 206t-6.5 335q93 254 377.5 432.5t542.5 209.5zM1355 1180q38 68 117 151q38 32 138 34.5t144 2.5l-20 -29q-24 -4 -59 -12t-53 -20q-64 -56 -133 -184l-312 -571q-45 -83 -129 -171
q-38 -33 -138 -35.5t-144 -1.5l21 29q23 3 58.5 11t53.5 21q34 30 72 86.5t75 123.5z" />
    <glyph glyph-name="afii10022" unicode="&#x415;" horiz-adv-x="1568" 
d="M1426 498q-3 72 -34 133q-62 126 -193 161q-79 20 -153 -4q-107 -31 -155 -100t-40.5 -130.5t70 -93t178.5 13.5q13 3 12 -41q-47 -29 -113 -56t-131 -15q-66 12 -109.5 60.5t-15.5 165.5q15 66 83.5 135.5t164.5 97.5q162 47 339 14t246 -252q21 -69 -2 -160.5
t-74 -163.5q-51 -73 -118.5 -118t-121.5 -74q-104 -54 -223.5 -75t-236.5 -13q-201 14 -358 89q-168 80 -262.5 213t-94.5 289q0 147 91.5 290t252.5 249q159 106 359 156q-43 123 -9 256q31 125 121 215.5t196 150.5q177 100 378 100q219 0 359 -102q24 -21 46 -2
q36 26 68 37q16 6 26.5 -14t-3.5 -29l-184 -132q-3 3 -13.5 -0.5t-31.5 17.5q-119 121 -282 146q-189 27 -346 -78.5t-188 -282.5q-26 -144 22 -252q57 7 108 14t100 7q102 -2 228 -21.5t125 -156.5q-44 -130 -233 -130q-132 0 -242 35t-176 106q-32 34 -52 74
q-158 -48 -284 -152q-117 -97 -185 -227t-68 -271t69.5 -256.5t186.5 -188.5q193 -122 445 -99q239 21 371 196q94 123 87 269zM968 1258q69 -110 205 -166q45 -20 143.5 -27t126.5 55q24 56 -8 88t-86 47.5t-112 19t-84 2.5q-55 -3 -105 -9.5t-80 -9.5z" />
    <glyph glyph-name="afii10024" unicode="&#x416;" horiz-adv-x="2592" 
d="M1113 3q174 163 313 471t303 618q77 147 161 274t172 241l-831 -782q-82 -77 -140 -159q-77 -108 -158 -198q-136 -153 -279 -290t-269 -166q-111 -24 -160 -9.5t-68 41.5q-45 58 27 157.5t117 129.5q16 11 46 -4.5t3 -36.5q-53 -40 -65.5 -90t19.5 -77q41 -36 116 -14
q66 18 157 90q139 110 252.5 252.5t218.5 291.5q63 90 115 198t66 216q19 157 1 310t-129 246q-162 133 -380 110t-377 -184q-159 -162 -180.5 -342t76.5 -283q54 -58 139 -89t220 26q69 28 129.5 119.5t50.5 180.5q-8 65 -57 102t-111 33q-48 -4 -95.5 -42t-82.5 -89
q-12 -18 -34 -2.5t-13 34.5q24 50 102.5 116.5t107.5 78.5q75 33 150.5 23.5t120.5 -73.5q36 -54 28 -126.5t-38 -144.5q-48 -111 -121 -184q-84 -84 -197.5 -132t-223.5 -42q-197 8 -270 159q-93 191 35.5 420t269.5 347q126 105 330.5 179.5t357.5 41.5
q193 -42 275.5 -170.5t90.5 -274.5q8 -153 -50 -336q-44 -135 -125 -283l967 909q39 36 78 73t76 77l31 -33q-1 0 -3 -2l3 -3q-71 -67 -129 -158q-108 -173 -206 -409.5t-210 -450.5q-90 -169 -187 -315t-196 -269l920 742q71 115 138.5 226t136.5 218q79 125 181 221
t158 144q62 52 137 75q146 43 127 -111q-11 -83 -95.5 -161.5t-143.5 -135.5q-89 -86 -179.5 -161.5t-192.5 -157.5q-83 -137 -155 -247q-75 -114 -139.5 -229t-135.5 -232q-35 -57 -72 -120t-43 -129q-4 -35 -8.5 -70t30.5 -53q57 -31 157 16t144 78q55 39 99 83.5t90 92.5
q16 16 32 1q17 -16 1 -32q-44 -47 -86.5 -88.5t-92.5 -80.5q-87 -68 -247 -157t-267 10q-54 51 -31.5 138.5t46.5 150.5q51 135 141 279t177 283l10 16t11 17l-912 -737q-67 -54 -125 -110t-120 -113zM2707 1316q84 69 164.5 137.5t152.5 151.5q30 35 93 123t28 128
q-42 46 -139 -71t-119 -156q-45 -79 -90 -157.5t-90 -155.5z" />
    <glyph glyph-name="afii10025" unicode="&#x417;" horiz-adv-x="1462" 
d="M381 94q90 -55 206.5 -63t223.5 7q206 29 349 190.5t194 355.5q59 229 -36 406q-118 -36 -220 -36q-147 0 -233 34q-101 39 -101 116q0 52 40.5 85.5t93.5 47.5q53 12 106.5 8.5t88.5 -8.5q108 -17 189.5 -69t128.5 -103q90 40 151 115q134 165 134 354q0 191 -133.5 274
t-277.5 64q-112 -15 -197 -89.5t-85 -206.5q0 -88 63 -127.5t165 -3.5q30 10 49.5 28.5t43.5 39.5q22 21 43 4t6 -32q-72 -69 -152 -108.5t-155 -35.5q-81 5 -135.5 58.5t-54.5 135.5q0 179 165 296q93 66 215.5 96t241.5 19q152 -14 255.5 -106t103.5 -257
q0 -230 -211 -413q-85 -76 -211 -135q84 -113 94.5 -262.5t-46.5 -290.5q-79 -194 -257.5 -324t-409.5 -162q-113 -15 -247.5 -5.5t-233.5 51.5q-131 55 -202 155q-64 89 -77.5 198t33.5 211q56 120 174 207q159 116 352 109q85 -3 173.5 -35.5t151.5 -94.5q60 -61 73 -144
q17 -115 -39.5 -204t-150.5 -128q-97 -41 -236.5 -23t-171.5 147q-15 55 0.5 116.5t66.5 94.5q18 12 54 24t73 5q13 -3 12 -20.5t-16 -21.5q-29 -9 -45.5 -15.5t-34.5 -41.5q-30 -58 -14 -119q7 -29 24 -60.5t45 -43.5q107 -49 206 17q76 50 106 154q28 98 -11 177
q-52 102 -159 144.5t-211 24.5q-156 -29 -240 -141t-85 -270q-1 -109 51 -212t144 -158zM1299 1024q-21 31 -60.5 71t-99.5 68q-87 41 -173.5 29t-89.5 -88q0 -41 63 -68.5t156 -36.5q91 -9 204 25z" />
    <glyph glyph-name="afii10026" unicode="&#x418;" horiz-adv-x="2676" 
d="M144 266q-42 -66 -10.5 -116t96.5 -68q51 -16 108.5 -21t88.5 -5q64 1 148.5 14t180.5 47q110 38 241 111q-97 60 -172 90q-120 45 -253 57q-78 7 -226.5 -9t-201.5 -100zM3381 2005q-57 7 -107 -32t-92 -91q-33 -41 -61 -84t-49 -74q-135 -195 -236.5 -361t-188.5 -340
q-18 -36 -102.5 -200t-161.5 -322q-35 -70 -62.5 -130t-41.5 -106q-32 -99 11 -123q49 -29 119.5 8.5t139.5 98.5q60 54 112 110t79 86q23 25 42 7q17 -18 1 -34q-29 -33 -73 -81.5t-97 -99.5q-117 -114 -256.5 -193t-236.5 17q-54 53 -31 145.5t47 158.5q27 75 73 158.5
t90 170.5q19 35 25 60q5 26 -35 -28q-96 -129 -161 -206q-29 -34 -92 -118t-150 -171.5t-190.5 -155t-212.5 -67.5q-127 0 -227.5 56.5t-199.5 124.5q-56 -32 -95 -51q-168 -86 -315 -119q-177 -38 -372 -17q-84 10 -146.5 45t-75.5 108q-21 111 83 188q87 64 217 89.5
t208 30.5q147 9 311.5 -18t304.5 -106q190 131 349 287q123 120 230 268.5t160 343.5q37 143 16 287q-24 164 -145 275q-129 118 -309 130q-135 7 -273 -47t-231 -149q-143 -145 -171.5 -321.5t48.5 -293.5q51 -80 151.5 -115t226.5 18q69 28 129 132t51 193q-8 65 -57 92
t-111 23q-80 -7 -158 -121q-13 -19 -34.5 -3t-12.5 34q24 51 92.5 117.5t96.5 78.5q76 33 151 28.5t120 -69.5q39 -57 40 -124.5t-21 -133.5q-39 -117 -125 -201q-83 -84 -197 -144.5t-223 -54.5q-91 3 -165.5 40t-110.5 109q-118 240 16.5 496t368.5 393
q171 99 350.5 122.5t306.5 -3.5q169 -37 265 -156q104 -130 103 -309t-57 -334q-67 -182 -199 -348q-143 -179 -286 -313q-152 -142 -327 -264q84 -58 180.5 -125t182.5 -51q189 34 324.5 207t189.5 237q66 77 157 200t185 255q48 69 92.5 140.5t94.5 140.5q45 63 91 126
t85 126q79 131 179.5 241t156.5 160q69 62 162 82t181 2q99 -23 133 -84q4 -8 38.5 6.5t44.5 21.5q9 7 35 -5.5t-14 -42.5l-187 -137q-1 -1 -13 -0.5t-12 8.5q-3 35 -27.5 108.5t-111.5 86.5z" />
    <glyph glyph-name="afii10027" unicode="&#x419;" horiz-adv-x="2619" 
d="M98 266q-43 -66 -11.5 -116t96.5 -68q51 -16 108.5 -21t89.5 -5q63 1 147.5 14t180.5 47q113 39 242 111q-95 59 -173 90q-119 45 -253 57q-77 7 -225.5 -9t-201.5 -100zM3334 2005q-57 7 -107 -32t-92 -91q-33 -41 -60.5 -84t-49.5 -74q-134 -195 -235.5 -361
t-188.5 -340q-19 -36 -103.5 -200t-161.5 -322q-35 -70 -62 -130t-42 -106q-32 -99 11 -123q50 -29 120.5 8.5t139.5 98.5q60 54 111.5 110t78.5 86q22 25 43 7q15 -17 1 -34q-30 -33 -74 -81.5t-97 -99.5q-117 -114 -256 -193t-236 17q-54 53 -31.5 145.5t46.5 158.5
q27 75 73 158.5t91 170.5q21 43 24 60q5 23 -35 -28q-102 -138 -160 -206q-29 -34 -92.5 -118t-150 -171.5t-190.5 -155t-213 -67.5q-127 0 -227 56.5t-200 124.5q-44 -26 -95 -51q-165 -85 -314 -119q-178 -38 -372 -17q-84 10 -147 45t-75 108q-20 112 82 188
q87 64 217.5 89.5t207.5 30.5q148 9 312 -18t304 -106q186 127 349 287q124 120 231 268.5t159 343.5q37 138 17 287q-25 165 -145 275q-130 118 -309 130q-135 7 -273 -47t-231 -149q-144 -145 -172.5 -321.5t48.5 -293.5q52 -80 152.5 -115t226.5 18q69 28 129 132t50 193
q-8 65 -56.5 92t-110.5 23q-81 -7 -159 -121q-12 -19 -33.5 -3t-12.5 34q24 51 92 117.5t97 78.5q75 33 150.5 28.5t120.5 -69.5q39 -57 40 -124.5t-21 -133.5q-41 -117 -125 -201t-197.5 -144.5t-223.5 -54.5q-90 3 -165 40t-110 109q-119 240 15.5 496t369.5 393
q171 99 350 122.5t307 -3.5q170 -37 265 -156q103 -130 102 -309t-57 -334q-66 -182 -199 -348q-137 -173 -286 -313q-156 -146 -327 -264q84 -58 180.5 -125t183.5 -51q188 34 324 207t190 237q65 77 156 200t185 255q48 69 92.5 140.5t94.5 140.5q45 63 91.5 126t85.5 126
q79 131 179 241t156 160q69 62 162.5 82t180.5 2q98 -22 134 -84q3 -8 38 6.5t44 21.5q10 7 36 -5.5t-14 -42.5l-188 -137q-1 -1 -13 -0.5t-12 8.5q-3 35 -27 108.5t-112 86.5zM2796 2006q-62 -165 -260 -165q-63 0 -155 32.5t-72 119.5q10 48 51 67q36 15 76.5 -0.5
t37.5 -46.5q-5 -50 -36 -52t-46 9q-21 14 -31 -10q-5 -13 3 -25q24 -32 78.5 -46.5t92.5 -14.5q87 0 151.5 40.5t77.5 100.5q5 22 20 21q22 0 12 -30z" />
    <glyph glyph-name="afii10028" unicode="&#x41a;" horiz-adv-x="2832" 
d="M1555 1585q-119 -132 -227 -155.5t-170 21.5q-63 44 -78.5 133t29.5 179q78 156 254 220q112 40 278 32q122 -5 213 -36q117 -42 253 -100.5t283 -63.5q138 -5 252.5 67.5t225.5 126.5q12 7 24 -8q16 -21 -2 -31q-75 -46 -163.5 -114t-146.5 -131q-186 -204 -316 -439.5
t-306 -545.5q-78 -135 -162 -257t-182 -218t-242 -176t-315 -112q-1 0 -2 -0.5t-1.5 -0.5h-2t-2 -0.5t-2.5 -0.5t-4 -1h-2h-3.5t-6.5 -1l-8 -2q-138 -20 -302 -7t-284 66q-60 27 -138 88t-132 138q-104 147 -91 336q18 258 239 419.5t467 152.5q160 -7 282 -64t170 -174
q47 -118 -2 -272.5t-211 -223.5q-117 -52 -244 -44q-83 4 -150.5 44t-89.5 130q-18 69 0.5 145.5t81.5 118.5q23 15 66.5 30t89.5 7q16 -3 14 -25.5t-20 -27.5q-35 -12 -55 -20t-42 -51q-37 -71 -17 -149q31 -129 150 -141q94 -10 185 53q100 67 129 172q34 121 -13 220
q-60 122 -194 182q-113 49 -238 32.5t-223 -89.5q-95 -72 -142 -183.5t-50 -234.5q-3 -148 56 -287t178 -215q75 -50 166.5 -67t184.5 -16q34 0 102 4h3q2 1 4 1h3h3q134 12 269 87.5t241 190.5q290 314 442.5 658t384.5 614q61 71 113 119t130 97q-55 -21 -110 -37
t-129 -37q-93 -27 -218.5 11.5t-218.5 80.5q-70 31 -136 62t-132 48q-66 16 -143.5 12.5t-149.5 -41.5q-79 -42 -96 -107.5t0 -121.5q21 -73 103 -97.5t203 73.5q27 21 43.5 -3.5t-0.5 -42.5zM4085 1804l-216 -80q-13 -5 -24 15q-23 43 -54 105.5t-74 86.5q-94 49 -211 13
q-53 -17 -108 -61t-106 -99q-112 -120 -186 -279t-182 -297q-75 -94 -188.5 -165.5t-215.5 -98.5q-38 -10 -26 -20q44 -35 76.5 -60t41.5 -63q13 -55 -12.5 -111.5t-59.5 -114.5q-80 -135 -158 -249q-38 -57 -48 -121t49 -96q57 -31 176 40t164 102q54 39 98.5 83t89.5 93
q16 16 32 0q17 -16 1 -32q-44 -46 -86.5 -87.5t-92.5 -80.5q-44 -34 -117.5 -83.5t-155.5 -85.5t-161 -44t-134 40q-37 32 -45 99.5t23 127.5q100 190 169 268q39 45 66 137t3 146t-97 61t-147 6q-12 0 0 20.5t24 20.5q20 0 55.5 0.5t78.5 6.5q184 22 311 137
q125 115 195 240.5t160 258.5q51 75 116 152.5t174 156.5q83 59 187 94q63 21 128 23.5t137 -0.5q83 -5 147 -45q60 -39 123 -124q19 -26 71 -2q14 6 14.5 -13t-5.5 -21z" />
    <glyph glyph-name="afii10029" unicode="&#x41b;" horiz-adv-x="2589" 
d="M453 92q96 -57 222.5 -65t242.5 7q192 26 361.5 175.5t294.5 290.5q93 107 178 223.5t168 235.5q120 172 245 340.5t258 331.5q38 47 78 92.5t88 85.5q47 38 107 70t122 37q74 5 111 -45q25 -35 27 -81.5t-5 -86.5q-11 -60 -29 -93q-97 -174 -203 -340.5t-214 -331.5
q-75 -115 -149 -230t-145 -232q-35 -57 -62.5 -119.5t-33.5 -129.5q-4 -35 3.5 -72t41.5 -55q57 -31 145.5 18t132.5 81q55 39 99 83t90 92q15 17 32 1t1 -32q-44 -46 -86.5 -88t-92.5 -81q-87 -68 -233 -145t-252 22q-54 51 -53 122t25 134q47 123 110 228
q70 117 136.5 219.5t131.5 201.5q80 123 159 247t163 268q36 64 77 133t68 138q26 66 -23 93q-36 19 -72.5 2t-64.5 -37q-59 -42 -107.5 -95.5t-93.5 -108.5q-243 -299 -480 -641q-87 -126 -176 -249t-188 -236q-132 -150 -303.5 -301.5t-380.5 -178.5q-122 -16 -268 -5
t-253 53q-141 56 -219 162q-69 93 -83.5 207t36.5 219q59 125 188 215q171 122 381 115q92 -4 188 -38t164 -98q65 -64 79 -151q18 -120 -43 -212t-163 -133q-105 -43 -256 -24t-186 153q-16 57 0.5 121t72.5 99q20 12 58.5 24.5t79.5 5.5q14 -3 12 -21.5t-17 -22.5
q-31 -9 -48.5 -16t-37.5 -43q-33 -59 -16 -124q8 -30 26.5 -63t48.5 -45q116 -52 223 17q84 54 115 161q30 102 -12 183q-57 106 -172.5 151t-228.5 26q-168 -30 -259.5 -146.5t-92.5 -281.5q-1 -114 56 -221t156 -165z" />
    <glyph glyph-name="afii10030" unicode="&#x41c;" horiz-adv-x="3316" 
d="M1062 118q97 40 173 95q96 70 180.5 156.5t154.5 166.5q94 107 178.5 223.5t167.5 235.5q120 172 245 340.5t258 331.5q39 47 79 92.5t88 85.5q46 38 106 70t123 37q73 5 110 -44q26 -36 15 -82.5t-17 -86.5q-6 -35 -36.5 -80t-60.5 -96l-645 -982q-56 -84 -105.5 -164
t-56.5 -154q-4 -35 -11.5 -72t26.5 -55q57 -32 125.5 39.5t110.5 119.5q48 57 92 120.5t92 127.5q104 140 208 285t195 283q91 139 185.5 277.5t198.5 266.5q39 47 73 98.5t82 91.5q46 38 84.5 70t101.5 37q118 6 151 -49q17 -30 12.5 -74.5t-12.5 -89.5q-11 -62 -30 -93
l-729 -1134q-35 -57 -62.5 -119.5t-33.5 -129.5q-4 -35 3.5 -72t42.5 -55q57 -31 145.5 18t132.5 81q54 39 98.5 83t89.5 92q15 17 33 1q16 -16 0 -32q-44 -46 -86 -88t-93 -81q-87 -68 -232.5 -145t-252.5 22q-54 51 -53 122t25 134q47 123 110 228l602 936q37 64 80.5 133
t70.5 138q13 32 -3.5 56.5t-37.5 36.5q-35 19 -50.5 2t-42.5 -37q-60 -42 -102 -101.5t-87 -114.5q-104 -128 -197.5 -265.5t-184.5 -276.5q-87 -132 -187.5 -272.5t-201.5 -276.5q-50 -67 -95 -133t-96 -123q-35 -38 -88.5 -95.5t-115 -102t-123.5 -59t-113 34.5
q-54 50 -37.5 139.5t40.5 152.5q16 43 46 93.5t57 91.5l646 979q36 64 92.5 133t83.5 138q28 71 -11 93q-35 19 -72 2t-64 -37q-60 -42 -108 -95.5t-93 -108.5q-127 -156 -247 -316.5t-234 -324.5q-87 -126 -176 -249t-188 -236q-75 -85 -167 -178t-196 -166
q-73 -53 -158 -88q-168 -70 -370 -71.5t-367 78.5q-159 77 -236 224t23 357q61 127 188 215q172 121 382 114q92 -3 187.5 -37t164.5 -98q65 -65 80 -150q17 -104 -41.5 -203.5t-166.5 -142.5q-105 -42 -255.5 -23.5t-186.5 152.5q-15 57 1.5 121t71.5 99q20 12 58.5 24.5
t79.5 5.5q15 -3 13 -21.5t-17 -22.5q-32 -9 -49.5 -16t-37.5 -43q-33 -60 -15 -124q7 -30 25.5 -63t49.5 -45q115 -52 222 17q84 54 115 161q31 100 -12 184q-57 105 -172.5 150t-227.5 26q-169 -30 -260 -146.5t-92 -281.5q-2 -181 122 -314q131 -141 334 -145t368 63z" />
    <glyph glyph-name="afii10031" unicode="&#x41d;" horiz-adv-x="2959" 
d="M1383 1481l582 472q23 18 36 4q1 -93 50 -176q35 -57 90.5 -77.5t117.5 -15.5q96 6 213.5 68.5t251.5 156.5q53 37 124 106q21 20 42 -3t-1 -42q-15 -15 -39.5 -35t-52.5 -44q-67 -59 -130 -129q-118 -132 -214 -286t-185 -303l-64 -107l446 -2q93 150 176 257.5
t162 194.5q89 97 184 189.5t206 161.5q101 64 214 107q66 24 131.5 29.5t125.5 2.5q83 -5 147 -45q38 -25 67 -57.5t56 -66.5q18 -26 71 -2q13 6 14 -13t-5 -21l-216 -80q-14 -5 -24 15q-11 19 -23 46t-28 54q-32 50 -83 78q-92 49 -210 13q-105 -33 -210 -146
q-111 -118 -294 -352.5t-291 -399.5q-75 -115 -124 -209t-120 -211q-27 -44 -64 -120.5t-58 -155.5q-18 -66 -14.5 -123.5t61.5 -88.5q57 -32 174 32t161 95q55 39 99 83.5t90 92.5q16 16 32 1q16 -16 1 -33q-44 -46 -86.5 -87.5t-92.5 -80.5q-87 -68 -270.5 -161t-293.5 3
q-84 73 -44 230.5t87 255.5q57 118 127.5 239t136.5 228l-445 2l-351 -587q-87 -144 -234.5 -233.5t-330.5 -144.5q-189 -56 -413 -51.5t-390 66.5q-79 29 -143.5 85t-113.5 118q-83 101 -99.5 226.5t43.5 241.5q71 137 223 237q208 134 455 125q110 -4 224 -41t195 -108
q77 -70 94 -165q22 -132 -51 -233.5t-195 -146.5q-124 -47 -304 -26.5t-222 167.5q-19 64 1 134t86 108q24 14 70 28t95 6q16 -3 14 -23.5t-20 -25.5q-37 -10 -58 -17.5t-45 -47.5q-39 -65 -19 -136q9 -33 31.5 -69t58.5 -50q136 -56 265 19q99 59 137 177q36 112 -15 202
q-67 117 -204.5 166t-272.5 27q-201 -33 -309 -161t-110 -309q-3 -287 193 -412t450 -111q263 14 478 156q123 81 218 191.5t164 229.5q105 180 212.5 359.5t215.5 358.5q58 96 127 171.5t150 156.5q16 13 12 16q-6 3 -24 -6q-314 -172 -529 -85q-48 19 -76.5 57t-62.5 84
q-4 4 -12 0l-373 -303q-13 -10 -27.5 7.5t-1.5 27.5z" />
    <glyph glyph-name="afii10032" unicode="&#x41e;" horiz-adv-x="1469" 
d="M1478 1957q132 0 262 -50.5t223 -140.5q9 -9 37.5 8.5t37.5 5.5q4 -9 16.5 -22t3.5 -18l-173 -98q-21 -12 -29 -14t-38 35q-108 130 -277 186.5t-361 -10.5q-250 -87 -466.5 -315t-350.5 -511q-84 -177 -82 -365t80 -326q93 -168 255 -207.5t333 3.5q117 29 218 107
q71 54 166 144.5t166 216.5q69 122 97 243q43 193 -42 341q-93 161 -291 161q-116 0 -221 -62t-182 -209t-40.5 -240t152.5 -93q90 0 146 48t119 149q9 15 44 -17q-57 -103 -102 -176t-107 -112q-70 -43 -173 -40t-151 79q-90 138 35 373q57 108 167 238.5t272 178.5
q74 21 146 13.5t122 -24.5q152 -55 195 -237q70 -297 -108 -587.5t-409 -451.5q-134 -94 -282 -138q-174 -50 -373 -21.5t-312 187.5q-96 136 -93 342.5t112 446.5q91 202 236 380t316 311t354.5 210.5t351.5 77.5z" />
    <glyph glyph-name="afii10033" unicode="&#x41f;" horiz-adv-x="2539" 
d="M2759 1638q8 8 23 1q33 -16 18 -35q-190 -239 -339.5 -474t-246 -432.5t-133.5 -341t-2 -199.5q30 -49 92 -43.5t122 41.5q87 51 166.5 133.5t138.5 122.5q16 11 32 -5t-3 -35q-120 -119 -235.5 -211t-214.5 -128q-87 -32 -154 -19t-104 54q-66 72 -25 255.5t130 353.5
q75 146 249 380t486 582zM3581 1950q-38 -69 -94 -109q-70 -51 -162 -64.5t-180 -12.5q-153 0 -306 17t-303 38q-173 23 -348 42.5t-349 22.5q-75 0 -146.5 -1.5t-131.5 -7.5q-97 -12 -197.5 -45t-181.5 -92q-68 -50 -86.5 -144t23.5 -145q42 -59 107 -59t122 42
q17 13 32 -5q13 -19 -6 -32q-51 -38 -107 -59.5t-122 -11.5q-81 12 -120.5 71.5t-31.5 138.5q9 97 93 181q90 91 217 140.5t253 64.5q62 6 142 16t155 10q279 -4 574 -12.5t571 -23.5q148 -9 324.5 -11.5t208.5 69.5q9 21 36 12q23 -9 14 -30zM830 39q128 10 236 106
t183 189q57 72 99.5 136.5t81.5 129.5q105 180 212.5 360t215.5 358q58 96 110.5 182t133.5 167q39 32 139 34.5t145 2.5l-22 -29q-24 -4 -59.5 -12t-53.5 -20q-78 -66 -167 -228.5t-158 -274.5l-454 -741q-215 -350 -586 -399q-122 -15 -267.5 -5t-252.5 53
q-67 27 -131.5 75.5t-103.5 111.5q-131 204 -28 423q61 127 188 215q171 121 382 115q92 -4 187.5 -38t163.5 -98q65 -63 79 -151q18 -120 -43 -212t-163 -133q-105 -43 -255.5 -24t-186.5 153q-15 57 1 121t72 99q20 12 58.5 24.5t79.5 5.5q15 -3 13 -21.5t-17 -22.5
q-24 -7 -39 -11.5t-29 -19.5q-29 -34 -37 -80q-16 -93 42.5 -150.5t149.5 -50.5q109 9 179 107q78 110 48.5 226t-148.5 182q-126 69 -268 44q-91 -16 -166 -62q-185 -117 -186 -366q-3 -277 204 -399q94 -57 202.5 -69t215.5 -3z" />
    <glyph glyph-name="afii10034" unicode="&#x420;" horiz-adv-x="1052" 
d="M1329 1705q8 8 23 1q35 -17 17 -36q-190 -239 -349 -483.5t-267 -453.5t-154.5 -362.5t-11.5 -209.5q30 -49 91.5 -43.5t121.5 41.5q87 51 167 133.5t138 122.5q16 10 32 -5q16 -17 -3 -36q-119 -118 -235 -210t-214 -129q-87 -33 -154.5 -19.5t-103.5 54.5
q-66 72 -25.5 256t129.5 354q76 146 281 411.5t517 613.5zM913 1954q223 15 410.5 -39t301.5 -157q126 -115 132.5 -265.5t-107.5 -276.5q-72 -79 -198 -117.5t-357 -41.5q-32 -1 -23.5 13.5t20.5 16.5q278 38 398 136q107 88 116 240t-83 254q-87 96 -246.5 140.5
t-351.5 29.5q-372 -30 -555 -248q-78 -92 -99.5 -229t46.5 -242q82 -130 356 -137q18 0 16.5 -12.5t-33.5 -15.5q-357 -34 -504 125q-112 119 -74 272t137 258q113 118 296 199.5t402 96.5z" />
    <glyph glyph-name="afii10035" unicode="&#x421;" horiz-adv-x="1335" 
d="M1124 1814q-292 -94 -533 -380q-81 -96 -142 -206t-115 -229q-81 -179 -80.5 -366t78.5 -326q93 -167 260.5 -201t338.5 9q127 32 238.5 104.5t199.5 170.5q40 37 66 0q-115 -138 -261 -233q-151 -99 -318 -148q-174 -51 -373 -22t-312 188q-96 136 -94.5 342.5
t113.5 446.5q147 315 371.5 551.5t457.5 355.5q92 47 211 80.5t244 21.5q116 -12 195 -69t120 -141q64 -136 19 -307q-35 -130 -125 -253q-66 -92 -149.5 -160t-157.5 -110q-126 -73 -243.5 -82t-187.5 33q-88 51 -99.5 166t33.5 196q40 72 135.5 163t260.5 152
q21 8 26.5 -17t-5.5 -30q-83 -42 -163.5 -96.5t-112.5 -110.5q-91 -162 25.5 -289.5t349.5 7.5q116 66 187 158q112 144 100 324t-182 278q-78 44 -183.5 50t-192.5 -21z" />
    <glyph glyph-name="afii10036" unicode="&#x422;" horiz-adv-x="3185" 
d="M4216 1951q-25 -35 -65 -90.5t-78 -76.5q-94 -51 -87.5 -49.5t-111.5 1.5q-207 0 -532.5 26t-527.5 47q-231 23 -466.5 48t-469.5 28q-100 0 -193 -1.5t-154 -7.5q-97 -12 -197.5 -45t-181.5 -92q-67 -50 -86 -144t24 -145q42 -59 106.5 -59t121.5 42q18 14 32 -5
q13 -19 -5 -31q-52 -38 -107.5 -60t-121.5 -12q-81 12 -121 71.5t-31 138.5q9 96 93 182q78 79 198.5 131.5t252.5 79.5q102 21 202.5 26t186.5 5q321 -4 727 -40t789 -46q173 -5 352 -3.5t319 27.5q44 8 51.5 30t19.5 43q5 7 11 12t32 -1q33 -10 18 -30zM3413 1647
q6 8 23 1q32 -17 17 -36q-190 -238 -339.5 -472.5t-245.5 -432.5t-133 -341.5t-2 -199.5q30 -49 91.5 -43.5t121.5 41.5q87 51 167 133.5t139 122.5q16 12 32 -5t-4 -35q-119 -119 -235 -211t-214 -128q-87 -33 -154.5 -19.5t-103.5 54.5q-66 72 -25 255.5t129 353.5
q76 146 250 380t486 582zM2555 1476q41 72 117 151q38 32 137.5 34.5t144.5 2.5l-21 -29q-24 -4 -59 -12t-52 -20q-59 -52 -133 -184l-668 -1177q-48 -84 -129 -170q-39 -33 -139 -35.5t-143 -2.5l20 29q24 4 59 12t53 21q35 30 72.5 86.5t75.5 123.5zM1051 104
q60 42 114 98t101 115q57 72 99.5 136t81.5 129q105 180 212.5 360t215.5 358q58 96 110.5 182.5t133.5 166.5q39 32 139 35t145 3l-22 -30q-24 -3 -59.5 -11.5t-53.5 -20.5q-78 -66 -167 -228t-158 -275l-454 -741q-72 -116 -162.5 -206t-225.5 -142q-156 -60 -377.5 -64
t-372.5 76q-55 29 -101 75t-82 94q-70 93 -84.5 207t36.5 220q61 125 188 215q174 121 382 114q92 -4 187.5 -38t163.5 -98q65 -63 79 -150q18 -120 -43 -212t-163 -134q-105 -42 -255.5 -23.5t-186.5 152.5q-15 58 1 121.5t72 98.5q20 12 58.5 24.5t79.5 6.5
q15 -3 13 -21.5t-17 -23.5q-31 -9 -49 -16t-38 -43q-33 -59 -15 -124q7 -30 25.5 -62.5t49.5 -45.5q115 -51 222 17q83 54 116 161q29 102 -13 184q-57 106 -172.5 151t-227.5 25q-169 -30 -260 -146.5t-92 -281.5q-2 -102 43.5 -210.5t128.5 -172.5q122 -96 322 -97t332 92
z" />
    <glyph glyph-name="afii10037" unicode="&#x423;" horiz-adv-x="1928" 
d="M1003 1981q232 30 435 -81t277 -311q57 -157 9.5 -353t-236.5 -391q-12 -12 -22 -23t-19 -20q199 85 425.5 215.5t397.5 280.5q78 137 162.5 275.5t182.5 262.5q116 148 175 121q51 -23 33.5 -85.5t-66.5 -135.5q-56 -84 -125 -161t-96 -105q-47 -79 -84 -146t-74 -128
l-391 -705q-129 -210 -391.5 -358t-510.5 -152q-108 -1 -263 37.5t-235 124.5q-9 9 -9.5 24t-8.5 26l243 181q4 -9 12.5 -19t-6.5 -23q-67 -57 -75 -78q-9 -21 31.5 -59.5t60.5 -53.5q120 -95 279 -98t292 63q102 49 186.5 123t141.5 146q56 69 97 131.5t78 125.5
q74 127 146.5 268t147.5 279q-165 -132 -379 -254.5t-411 -194.5q-37 -14 -118.5 -36t-90.5 -13q-38 33 -11 56q46 39 99.5 87t92.5 97q101 125 145.5 283t-6.5 332q-49 167 -192 265t-319 89q-217 -11 -399 -81.5t-314 -249.5q-85 -115 -76 -261q15 -265 212 -361.5
t432 53.5q130 84 131.5 219t-94.5 184q-75 37 -146 20t-163 -101q-8 -8 -24 4t-5 29q50 77 133 124.5t155 55.5q186 21 256 -83.5t33 -230.5q-20 -66 -75.5 -126t-112.5 -105q-118 -94 -288 -123.5t-303 2.5q-177 40 -240 201t-5 328q84 249 364.5 406t518.5 187z" />
    <glyph glyph-name="afii10038" unicode="&#x424;" horiz-adv-x="1994" 
d="M99 685q-31 155 45 307q51 105 123.5 204.5t165.5 174.5q106 85 227 123q106 32 185 32q108 0 184 -63q90 -76 95.5 -188.5t-54.5 -216.5q-48 -81 -152 -153.5t-207 -77.5q-102 -6 -157.5 58t-13.5 172q9 24 34 60.5t64 60.5q13 8 23 -7t1 -29q-21 -30 -32 -47t-5 -59
q6 -46 69 -88q90 -60 174.5 -26.5t129.5 153.5q37 100 -3 203q-34 86 -132 119q-114 39 -259 -12.5t-228 -146.5q-207 -237 -154.5 -450t253.5 -235q84 -11 185 17.5t224 112.5q88 60 173 136t142 168q19 30 37.5 60t36.5 59q68 116 136 228.5t141 226.5q74 117 192.5 238
t253.5 169q85 29 175 29q75 -1 124.5 -26.5t91.5 -43.5q11 -6 19 -1q15 5 29 25q5 6 17 -1q18 -12 5 -20q-5 -4 -77.5 -74.5t-99.5 -91.5q-19 -15 -19 9q1 37 -27 86t-83.5 64.5t-139 -24.5t-193.5 -180q-95 -120 -173.5 -255.5t-155.5 -270.5q28 26 43 40q93 84 208 164.5
t216 107.5q135 36 215.5 9t124 -77t58.5 -103t19 -69q13 -71 -2.5 -155t-39.5 -156q-35 -105 -128 -207t-180 -171q-81 -63 -183 -105.5t-200 -42.5q-95 1 -160 57q-91 75 -92 183t60 212q48 81 157 160.5t216 85.5q65 3 115 -29q58 -39 66 -113q4 -51 -16 -102
q-9 -24 -43.5 -70t-73.5 -70q-15 -9 -25 6.5t1 30.5q56 81 54 133q-4 62 -61 94t-144 3q-72 -25 -123 -73q-117 -115 -57 -266q38 -99 125 -129q114 -40 239.5 8.5t209.5 144.5q81 93 130.5 204.5t45.5 211.5q-8 184 -155.5 251t-255.5 24q-66 -27 -133.5 -72t-130.5 -98
q-169 -141 -291 -340q-69 -117 -137 -229t-140 -226q-75 -117 -193.5 -238.5t-252.5 -167.5q-86 -29 -175 -29q-76 1 -139 24.5t-103 41.5q-27 11 -42 -10q-5 -5 -17 1q-18 11 -6 20q4 3 70 66.5t93 85.5q19 14 19 -9q0 -7 -4 -18.5t-1 -19.5q12 -48 73.5 -98.5t150.5 -31.5
q84 17 132.5 71t126.5 154q93 120 171.5 254.5t155.5 269.5q-108 -92 -222.5 -178.5t-205.5 -125.5q-183 -77 -348 -37.5t-205 240.5z" />
    <glyph glyph-name="afii10039" unicode="&#x425;" horiz-adv-x="2330" 
d="M3090 1722q-34 63 -89.5 144t-240.5 18q-199 -69 -373 -308t-284 -401q-41 -59 -70 -107l346 3v-94l-401 -4q-39 -70 -74 -142t-77 -159q-34 -72 -77 -176.5t-52 -183.5q-9 -75 5 -149.5t117 -69.5q54 2 114 12.5t109 36.5q98 52 173.5 114t156.5 129q16 14 27.5 -5.5
t-1.5 -31.5q-86 -74 -152.5 -125t-157.5 -115q-120 -84 -245 -101.5t-211 17.5q-97 41 -113 130q-15 83 26.5 195.5t90.5 207.5q-52 -66 -107 -128q-111 -130 -255.5 -234t-308.5 -151q-151 -44 -355.5 -55.5t-339.5 67.5q-111 66 -155.5 202t-26.5 263q21 150 115 270.5
t220 205.5q51 34 139.5 66.5t188.5 41.5q68 6 137.5 -3t107.5 -29q46 -26 80.5 -54t55.5 -72q103 -223 -78 -386q-62 -56 -137.5 -95.5t-132.5 -64.5q-18 -9 -33 7q-16 17 1 25q84 39 150 106t81 162q13 88 -29.5 175.5t-120.5 129.5q-82 43 -196.5 21t-189.5 -74
q-118 -82 -177.5 -171t-63.5 -232q-4 -127 53 -242t156 -171q238 -137 531 -51q160 47 302 158t251 238q69 81 114.5 147.5t90.5 144.5q27 48 54 96.5t53 100.5l-342 -4v95l387 4q39 90 71 183q36 111 42.5 234t-59.5 219q-51 74 -137.5 131.5t-176.5 57.5
q-243 -5 -443 -131q-106 -67 -212.5 -160.5t-214.5 -183.5q-17 -15 -30 5q-13 16 -1 28q106 97 218 194t235 174q96 60 201 102t222 57q132 16 264.5 -16t201.5 -126q74 -103 86.5 -242t-26.5 -259q-4 -14 -14 -42q109 141 194.5 253t199.5 202q166 132 347 211t360 -102
q16 -17 27 -14q36 7 64 27l13 -28q-7 -9 -99.5 -59.5t-99.5 -58.5z" />
    <glyph glyph-name="afii10040" unicode="&#x426;" horiz-adv-x="2126" 
d="M1950 103q-25 -27 -43 -52.5t-19 -59.5q-4 -93 -3.5 -218.5t-34.5 -199.5q-33 -64 -82.5 -147t-151.5 -131q-91 -42 -206.5 -45t-160.5 87q-35 69 -3 159t140 130q25 9 37 -12q12 -19 -7 -37q-33 -29 -50 -94t20 -97q118 -98 221 -37q87 54 108 168q12 66 8.5 201
t25.5 195q27 60 74 115q14 18 9 24q-6 3 -17 -3q-69 -39 -151 -57t-144 39q-54 51 -31.5 139t46.5 151q37 98 97 202.5t126 209.5l-590 -536q-81 -74 -237 -169.5t-262 3.5q-56 52 -45 140.5t62 173.5q138 233 273.5 400.5t270.5 367.5q72 107 129 220.5t57 226.5
q0 171 -185 236t-418 -13q-234 -80 -395 -259.5t-161 -350.5q0 -159 155.5 -229t284.5 -9q102 48 159.5 140.5t41.5 173.5q-17 81 -101.5 105t-186.5 -24q-45 -21 -60 -49.5t-36 -59.5q-15 -22 -43 -12q-29 10 -18 35q27 65 90.5 123.5t148.5 88.5q120 42 224 17t118 -153
q12 -117 -80 -245.5t-251 -199.5q-171 -77 -383.5 -33.5t-212.5 283.5q0 201 197.5 408t497.5 300t538.5 3t238.5 -291q0 -117 -60.5 -228t-131.5 -221q-60 -92 -186 -264.5t-234 -328.5q-57 -82 -105 -150.5t-54 -134.5q-4 -35 -4 -70t35 -53q57 -31 169 39t151 106
l694 641q0 1 49.5 79t136.5 216.5t177 279.5q79 125 183.5 230.5t160.5 153.5q57 49 124 60.5t96 -24.5q43 -53 -29 -179q-16 -29 -87 -112.5t-92 -101.5l-412 -380q-50 -81 -102 -162q-75 -114 -139.5 -229t-135.5 -232q-35 -57 -72.5 -119.5t-43.5 -129.5
q-3 -35 -7.5 -69.5t29.5 -52.5q57 -32 167 34t154 97q54 39 84.5 74t75.5 83q16 16 32 1t5 -28q4 1 -30.5 -35t-80 -82.5t-89 -90.5t-57.5 -59zM2246 1243l324 290q60 54 100 153t6 141q-40 47 -117 -64t-99 -150q-112 -197 -214 -370z" />
    <glyph glyph-name="afii10041" unicode="&#x427;" horiz-adv-x="2083" 
d="M777 1900q299 93 537.5 3t238.5 -291q0 -117 -60.5 -241.5t-131.5 -233.5q-24 -38 -69.5 -95.5t-69.5 -115.5q-28 -68 -1 -119.5t105 -51.5q94 -1 235 81.5t297 218.5q69 114 136 223t130 214q75 125 164 236.5t143 159.5q32 29 74 23q48 -8 43 -63q-6 -63 -54.5 -128
t-72.5 -95l-226 -286q-60 -111 -111 -192t-117 -189q-71 -114 -131 -229t-127 -232q-33 -57 -67.5 -119.5t-38.5 -129.5q-3 -35 -5.5 -70t32.5 -53q58 -31 171 11t156 74q54 39 96 83t86 92q15 16 32 1q17 -17 2 -32q-42 -46 -83 -88t-90 -81q-73 -58 -147 -104t-152 -64
q-65 -16 -131 -10t-96 42q-69 79 3 288q46 135 126 279t162 283q17 28 16 33q-2 7 -32 -17q-288 -210 -455 -241q-84 -17 -176.5 24t-76.5 145q13 88 73.5 191t89.5 146q72 106 129 219.5t57 227.5q0 171 -185 236t-418 -14q-234 -80 -395 -259t-161 -350q0 -160 155.5 -230
t284.5 -9q115 54 172 163q45 84 19.5 179t-143.5 104q-53 3 -101.5 -21.5t-66.5 -52.5q-16 -23 -42 -11q-29 9 -19 34q22 54 104.5 104t156.5 65q127 25 197 -43q48 -46 57 -114t-7 -128q-28 -98 -113 -191t-208 -148q-171 -77 -383.5 -33.5t-212.5 283.5q0 201 198 408
t498 301z" />
    <glyph glyph-name="afii10042" unicode="&#x428;" horiz-adv-x="2909" 
d="M3372 1622q52 51 67.5 124t-11.5 106q-40 48 -117 -63t-99 -150q-59 -103 -117 -204t-117 -200zM2891 1093q-21 -32 -41 -63.5t-40 -62.5q-75 -115 -139.5 -230t-135.5 -232q-35 -57 -72 -119.5t-43 -128.5q-4 -35 -8.5 -70t29.5 -53q57 -32 157.5 15t144.5 79
q55 39 99 83t90 92q15 16 32 1q16 -16 1 -32q-44 -46 -86.5 -88t-93.5 -81q-87 -67 -247 -156.5t-266 10.5q-54 50 -31.5 138t46.5 151q34 90 87.5 185t113.5 191l-528 -500q-87 -67 -240 -166t-260 1q-54 50 -31 138t47 151q37 99 97 203t126 209l-590 -536
q-82 -74 -237.5 -169.5t-261.5 4.5q-56 52 -45 140t62 174q138 233 273 400t270 367q72 107 129 220.5t57 227.5q0 171 -184.5 236t-418.5 -14q-234 -80 -394.5 -259.5t-160.5 -350.5q0 -159 155.5 -229t283.5 -9q102 48 160 140.5t42 174.5q-17 81 -101.5 104.5
t-186.5 -24.5q-45 -21 -60.5 -49t-36.5 -60q-14 -24 -42 -11q-29 9 -18 34q61 149 239 212q120 42 224 17t117 -152q12 -118 -80 -246.5t-251 -199.5q-171 -77 -383 -33.5t-212 283.5q0 201 197.5 408t497.5 301q300 93 538.5 3t238.5 -292q0 -117 -61 -228t-131 -221
q-60 -92 -186.5 -264t-234.5 -328q-57 -82 -105 -151t-54 -134q-3 -36 -3 -70.5t34 -52.5q57 -32 169 38t152 107l693 640q0 1 1 1q98 157 185 295t177 279q79 125 183.5 231t160.5 154q57 49 124 60t97 -24q42 -55 -29 -180q-18 -30 -40 -65.5t-53 -65.5l-498 -463
q-46 -73 -103 -161q-75 -115 -139.5 -230t-135.5 -232q-35 -57 -72 -119.5t-43 -128.5l-8 -70t30 -53q57 -32 166.5 34t154.5 98l631 605q6 9 11.5 18t11.5 18q99 157 188 304.5t179 288.5q80 125 182 221.5t158 144.5q57 49 124 60t96 -24q42 -54 -29 -180
q-15 -27 -34.5 -58.5t-46.5 -58.5zM2186 1269l379 361q51 49 64 119.5t-13 102.5q-40 48 -117 -63t-98 -150q-54 -95 -107.5 -187.5t-107.5 -182.5z" />
    <glyph glyph-name="afii10043" unicode="&#x429;" horiz-adv-x="2938" 
d="M3399 1586q52 51 67.5 124t-11.5 106q-40 47 -117 -64t-99 -150q-59 -103 -117 -204t-117 -200zM2695 42q-28 -27 -48.5 -52t-23.5 -61q-10 -93 -16.5 -218t-48.5 -199q-37 -65 -94 -147.5t-166 -131.5q-98 -42 -219 -44.5t-163 87.5q-32 68 6.5 158t154.5 130
q26 11 38 -11q11 -21 -10 -37q-36 -29 -57.5 -94.5t15.5 -96.5q117 -100 228 -37q95 54 123 168q16 66 21 201t38 195q45 82 112 148q8 4 4 14q-3 3 -14 0q-75 -33 -148 -39t-128 45q-54 51 -31.5 138.5t46.5 150.5q34 90 87.5 185.5t113.5 191.5l-528 -500
q-87 -68 -240 -166.5t-259 0.5q-54 51 -31.5 138.5t46.5 150.5q37 99 97 203.5t126 209.5l-590 -536q-82 -75 -237.5 -170t-261.5 4q-56 52 -45 140.5t62 173.5q138 233 273 400.5t270 367.5q72 107 129 220.5t57 226.5q0 171 -184.5 236t-418.5 -13q-234 -80 -394.5 -259.5
t-160.5 -350.5q0 -159 155.5 -229t283.5 -10q102 48 160 141t42 174q-17 81 -101.5 105t-186.5 -24q-45 -22 -60.5 -50t-36.5 -59q-14 -23 -42 -12q-29 10 -18 34q61 150 239 213q120 42 224 17t117 -153q12 -117 -80 -246t-250 -199q-171 -77 -383.5 -33.5t-212.5 283.5
q0 201 197.5 408t497.5 300t538.5 3t238.5 -291q0 -117 -60.5 -228t-131.5 -221q-60 -92 -186 -264.5t-234 -328.5q-57 -82 -105 -150.5t-54 -134.5q-4 -35 -4 -70t34 -53q57 -31 169 39t152 106l693 641q1 1 50 79t136 216.5t177 279.5q80 125 184.5 230.5t160.5 153.5
q57 49 124 60.5t96 -24.5q42 -55 -29 -179q-18 -30 -39.5 -66t-53.5 -65l-498 -463q-58 -94 -103 -161q-75 -115 -139.5 -230t-135.5 -232q-35 -57 -72 -119.5t-43 -129.5l-8 -70t30 -53q57 -31 167 35t154 97l631 605q11 17 23 37q99 156 188.5 304t179.5 289
q79 125 181 221t158 144q57 49 124 60.5t96 -24.5q43 -53 -28 -179q-16 -27 -35.5 -59t-46.5 -59l-531 -511q-49 -78 -81 -126q-75 -115 -139.5 -230t-135.5 -232q-35 -57 -72 -119.5t-43 -129.5q-4 -35 -8.5 -70t30.5 -53q57 -31 157 16t144 78q55 39 99 83.5t90 92.5
q16 16 32 1q17 -16 1 -32q-72 -77 -147 -149.5t-150 -144.5zM2213 1232l379 361q51 49 64.5 120t-12.5 103q-41 47 -118 -64t-98 -150q-54 -94 -107.5 -186.5t-107.5 -183.5z" />
    <glyph glyph-name="afii10044" unicode="&#x42a;" horiz-adv-x="1843" 
d="M1094 1706q12 9 52 38.5t91 65.5q5 3 5 7q-3 2 -9 0q-53 -28 -109.5 -52.5t-107.5 -27.5q-157 -13 -335 84q-137 75 -243 75q-95 0 -172 -50q-109 -73 -89 -200q8 -59 38 -88q62 -60 168 43q20 18 32 -3t0 -37q-51 -67 -154.5 -115.5t-157.5 25.5q-67 90 -5 239
q49 123 163 194q72 46 177 68q86 17 171.5 14t139.5 -20q93 -31 170 -77.5t159 -43.5q82 -4 159.5 34.5t182.5 84.5q24 10 34 10q38 -5 18 -30q-192 -167 -353.5 -370.5t-275.5 -433.5q-114 -228 -172 -469q-28 -119 -23 -224t47 -174q85 -144 232.5 -178t303.5 3
q103 24 200 92q64 47 150.5 124.5t152.5 185.5q63 106 88 209q40 165 -38 293q-85 138 -265 138q-106 0 -202.5 -53t-166.5 -179t-36.5 -206.5t138.5 -80.5q82 0 133.5 41.5t109.5 127.5q9 14 39 -14q-52 -89 -92.5 -151.5t-97.5 -95.5q-64 -37 -158 -35t-138 68
q-83 117 31 320q52 93 153.5 204.5t248.5 153.5q67 18 133 12t111 -21q139 -48 179 -203q64 -255 -99 -504.5t-373 -387.5q-125 -83 -258 -119q-159 -43 -341 -19t-285 162q-150 199 -75 490t238 559q91 150 193 279.5t190 217.5z" />
    <glyph glyph-name="afii10045" unicode="&#x42b;" horiz-adv-x="2323" 
d="M1020 1443q-87 -108 -152 -182.5t-113 -128.5q-69 -77 -136 -189.5t-106 -236.5q-38 -117 -39.5 -233t55.5 -210q85 -144 232.5 -178t303.5 3q104 24 200 93q64 46 150.5 123.5t152.5 185.5q63 106 88 209q39 165 -38 293q-85 138 -266 138q-105 0 -201.5 -53
t-166.5 -179q-71 -126 -37 -206.5t139 -80.5q82 0 133.5 41.5t109.5 127.5q9 14 39 -14q-52 -89 -92.5 -151.5t-97.5 -95.5q-64 -37 -158 -35t-138 68q-82 118 31 320q52 93 153 204.5t249 153.5q67 18 133 12t111 -21q139 -48 179 -203q29 -116 6 -234t-80 -226l372 342
q96 154 184.5 300t176.5 284q80 125 182 221.5t158 144.5q57 49 124 60t96 -25q38 -48 16 -109.5t-71 -123t-109 -116.5t-97 -89q-87 -81 -164.5 -152t-187.5 -173q-27 -43 -54.5 -86t-54.5 -85q-75 -114 -139.5 -229.5t-135.5 -232.5q-35 -57 -72 -119.5t-43 -129.5
q-4 -35 -8.5 -69.5t30.5 -52.5q57 -32 157 15t144 79q55 39 99 83t90 92q15 17 32 1t1 -32q-44 -46 -86.5 -88t-92.5 -81q-87 -68 -247 -157t-267 11q-54 50 -31.5 138t46.5 151q39 101 100.5 208t129.5 214l-379 -351q-131 -167 -297 -275q-125 -83 -258 -119
q-159 -43 -341 -19t-285 162q-131 174 -115 363t76 334q63 152 173 281.5t218.5 245.5t192 225t94.5 222q6 64 -60 116.5t-149 68.5q-104 20 -225.5 -25t-228.5 -151q-83 -82 -101 -184q-20 -109 38 -160q33 -33 69 -35t64 4q45 9 78.5 43t66.5 79q49 64 45 124
q-3 36 -17.5 42.5t-40.5 16.5q-14 4 9 22.5t39 21.5q43 7 75.5 -6t47.5 -25q39 -34 24.5 -98t-57.5 -122q-100 -133 -260 -152t-244 23q-83 42 -100 134t60 212q56 88 152 150q98 65 210 99t207 37q129 4 226 -42q102 -49 155.5 -149t21.5 -202q-14 -45 -43.5 -111
t-62.5 -109zM2428 1262q93 84 147 134.5t159 146.5q45 42 105.5 139t13.5 154q-40 48 -117 -63.5t-99 -149.5q-52 -93 -104 -183t-105 -178z" />
    <glyph glyph-name="afii10046" unicode="&#x42c;" horiz-adv-x="1589" 
d="M982 1367q-84 -104 -146.5 -175.5t-108.5 -123.5q-66 -74 -130.5 -182t-102.5 -227q-36 -113 -37.5 -224.5t52.5 -202.5q82 -138 224 -171t292 3q103 25 192 89q62 45 145.5 119.5t146.5 178.5q61 102 85 201q38 158 -37 282q-83 132 -255 132q-102 0 -194.5 -51
t-159.5 -172q-69 -122 -36.5 -199t134.5 -77q78 0 127.5 40t105.5 123q8 13 38 -14q-51 -85 -90.5 -145.5t-93.5 -92.5q-61 -36 -151.5 -33t-132.5 66q-79 111 30 308q50 89 147 196.5t239 147.5q65 18 128.5 11.5t107.5 -20.5q133 -46 171 -195q62 -246 -94.5 -486
t-359.5 -373q-125 -81 -248 -113q-153 -42 -328 -18.5t-274 154.5q-126 168 -110.5 350t73.5 321q61 147 166.5 271t209.5 236t184.5 217t91.5 213q6 61 -58 112t-143 66q-100 19 -217.5 -24t-219.5 -145q-79 -77 -97 -177q-20 -103 36 -155q33 -30 67 -32.5t61 3.5
q44 9 76 41t64 76q47 64 43 119q-3 35 -17 41.5t-39 15.5q-13 4 9 22t37 21q42 6 73.5 -6t45.5 -24q37 -33 23.5 -94.5t-55.5 -117.5q-96 -128 -250 -146.5t-235 22.5q-79 40 -95.5 129t57.5 204q54 84 146 144q94 62 202 95t199 36q122 4 218 -40q98 -48 149 -144t21 -194
q-14 -43 -42 -106.5t-60 -105.5z" />
    <glyph glyph-name="afii10047" unicode="&#x42d;" horiz-adv-x="1568" 
d="M1947 1613q52 -165 9 -352t-135 -366q-108 -210 -269 -393.5t-358 -313.5q-167 -110 -338.5 -155t-324.5 -43q-162 2 -290 67t-134 248q-5 113 73.5 209.5t186.5 140.5q139 56 239.5 22.5t130.5 -123.5q17 -54 8 -132.5t-77 -120.5q-21 -13 -55.5 -40.5t-74.5 -19.5
q-15 2 -13.5 20.5t18.5 23.5q111 34 108.5 134t-73.5 160q-49 41 -120.5 42.5t-149.5 -69.5q-136 -123 -34 -316q60 -114 168 -149t216 -30q147 6 283.5 66.5t243.5 132.5q201 138 358 357q77 105 131 203.5t86 221.5q70 275 29 456q-27 114 -107.5 210t-196.5 126
q-144 36 -305.5 -12.5t-251.5 -138.5q-96 -64 -135 -185.5t-5 -236.5q25 -90 97 -140q93 -68 170 -62q64 5 129 50t99 108q44 83 10 160q-26 54 -96 75q-99 31 -158 -60q-15 -8 -29 4.5t-5 24.5q27 62 89.5 95t86.5 38q90 19 145.5 -9t77.5 -81q27 -70 2.5 -161.5
t-95.5 -158.5q-48 -45 -102 -77t-99 -50q-103 -42 -224 -30.5t-190 110.5q-28 40 -35.5 104.5t1.5 123.5q21 160 151 313q132 155 330.5 246t375.5 64q55 -8 106 -30q37 -14 153.5 -76t168.5 -225zM927 828q112 100 227 133q73 19 155 -27.5t157 -57.5q33 -5 52.5 19.5
t58.5 49.5q10 6 20 -1q18 -18 2 -32q-54 -49 -95 -85.5t-138 -50.5q-68 -11 -141 27t-140 45q-41 4 -74.5 -14.5t-60.5 -33.5q-20 -13 -26 0q-9 18 3 28z" />
    <glyph glyph-name="afii10048" unicode="&#x42e;" horiz-adv-x="3559" 
d="M3503 1949q132 0 262 -50.5t222 -140.5q9 -9 38 9t37 5q5 -9 17.5 -22t2.5 -18l-173 -98q-30 -17 -43 -2q-15 15 -29 31.5t-29 31.5q-110 111 -268 154.5t-335 -17.5q-250 -87 -466.5 -315t-350.5 -511q-84 -178 -82.5 -365.5t80.5 -326.5q93 -168 254.5 -207.5
t332.5 3.5q116 29 219 108q71 54 165.5 144t166.5 216q69 122 97 243q43 193 -42 342q-93 160 -291 160q-116 0 -221 -62t-182 -209q-78 -147 -41 -240t153 -93q90 0 146 48.5t119 148.5q9 16 43 -17q-57 -103 -101.5 -176t-106.5 -111q-70 -44 -173 -41t-152 79
q-88 138 35 373q57 108 167.5 238.5t272.5 178.5q74 21 146 13.5t122 -24.5q151 -54 195 -236q70 -298 -108 -588.5t-409 -450.5q-139 -97 -283 -139q-174 -50 -373 -21.5t-311 188.5q-95 132 -94 333t104 435q-58 -31 -102 -31q-60 0 -85 43.5t-67 56.5q-50 13 -135 -57
l-348 -569q-72 -116 -162.5 -206t-225.5 -143q-156 -60 -377.5 -63.5t-372.5 76.5q-56 29 -101.5 74.5t-81.5 94.5q-70 93 -84.5 207t36.5 219q59 125 188 215q171 121 382 115q92 -4 187.5 -38t163.5 -99q65 -63 79 -150q18 -120 -43 -212t-163 -133q-105 -43 -255.5 -24
t-186.5 153q-16 57 0.5 121t72.5 99q20 12 58.5 24.5t79.5 5.5q14 -3 12.5 -21.5t-16.5 -22.5q-32 -10 -49.5 -16.5t-37.5 -42.5q-33 -60 -15 -124q7 -30 25.5 -63t49.5 -45q115 -52 222 17q83 52 115 161q31 100 -12 184q-57 105 -172.5 150t-228.5 26
q-168 -30 -259 -146.5t-93 -281.5q-1 -103 44.5 -211t128.5 -173q122 -96 322 -97t332 92q60 42 114 98t101 115q57 72 99.5 136.5t80.5 129.5q105 180 212.5 359.5t216.5 358.5q58 96 110.5 166t133.5 151q30 24 143 104q5 3 5 7q-2 3 -9 0q-64 -27 -129.5 -51.5
t-122.5 -28.5q-174 -13 -378 85q-68 32 -137 53t-138 21q-108 0 -193 -50q-52 -30 -82.5 -80t-18.5 -119q10 -61 43 -89q70 -60 190 43q22 19 35.5 -2.5t-0.5 -37.5q-57 -67 -173.5 -115.5t-177.5 25.5q-75 89 -6 239q57 124 183 195q88 48 201 67q96 18 193.5 15t157.5 -20
q105 -32 192 -78.5t180 -43.5q93 -3 178 35.5t190 83.5q20 11 34 10q37 -5 18 -29q-54 -48 -114 -99t-111 -105q-77 -79 -170.5 -251.5t-158.5 -278.5l-61 -99q102 63 170 60q62 -3 87 -45t64 -47q22 -4 54 15q192 387 550.5 659t685.5 272z" />
    <glyph glyph-name="afii10049" unicode="&#x42f;" horiz-adv-x="2377" 
d="M2643 1680q9 9 23 1q35 -15 18 -35q-190 -239 -349.5 -483.5t-267.5 -453.5t-154.5 -362.5t-11.5 -209.5q30 -49 91.5 -43.5t121.5 41.5q87 51 167 133.5t138 122.5q16 10 32 -5q15 -18 -3 -36q-119 -118 -235 -210t-215 -129q-87 -32 -154 -18.5t-103 53.5
q-66 72 -25.5 256t129.5 354q75 146 280.5 411t517.5 613zM1630 926q-60 -43 -111 -107q-90 -115 -169 -273t-163 -275q-60 -85 -127 -130.5t-100 -68.5q-85 -59 -211.5 -85.5t-227.5 -23.5q-99 4 -198.5 25t-165.5 84q-65 61 -80 159q-19 119 53.5 229t175.5 152
t254.5 22.5t187.5 -151.5q15 -59 -2 -123t-71 -97q-21 -13 -60 -26t-79 -5q-15 3 -13 21t18 23q30 9 48 16t39 43q32 60 15 124q-9 30 -27 62.5t-48 46.5q-116 50 -222 -17q-83 -53 -116 -161q-31 -104 12 -184q56 -107 167.5 -160t224.5 -34q40 6 105.5 31.5t131.5 75.5
q90 66 146 161t107 194q52 101 109 200t135 172q76 72 153.5 97t168.5 47q-147 30 -224 114q-112 119 -74 271.5t137 257.5q113 119 296 200t402 96q223 15 410.5 -39t301.5 -156q126 -115 132.5 -265.5t-107.5 -276.5q-71 -79 -197.5 -118t-357.5 -42q-32 0 -23 14.5
t21 16.5q279 38 397 136q108 88 116.5 239.5t-83.5 254.5q-87 96 -246.5 140t-351.5 29q-371 -28 -556 -247q-77 -92 -98.5 -229t46.5 -242q82 -130 356 -137q18 0 16.5 -12.5t-33.5 -15.5q-102 -10 -177.5 -1t-162.5 -52z" />
    <glyph glyph-name="afii10065" unicode="&#x430;" horiz-adv-x="909" 
d="M974 351l-312 -296q-81 -75 -157 -38t1 159l86 138q7 14 5 17q-5 4 -12 -5q-77 -90 -196.5 -203.5t-207.5 -113.5q-128 0 -157 90t48 249q75 157 246 278.5t299 121.5q152 0 173 -119l62 95q9 14 57 11q46 -5 44 -9l-326 -567q-10 -17 -23 -38t-7 -27q12 -13 31.5 -1.5
t34.5 25.5l281 267q16 15 32 -2q14 -17 -2 -32zM540 335q88 97 157 174.5t66 84.5q-6 9 -35.5 -1.5t-53.5 -13.5q-9 -2 -6 5.5t-3 15.5q3 31 -9 59.5t-65 28.5q-107 0 -226 -140.5t-173 -252.5q-89 -184 -8 -211q36 -14 72 4t72 43q61 42 117 101t95 103z" />
    <glyph glyph-name="afii10066" unicode="&#x431;" horiz-adv-x="696" 
d="M532 765q69 0 120.5 -60.5t-44.5 -189.5q-8 -11 -24.5 -0.5t-10.5 23.5q67 146 -63 162q-107 0 -195 -81t-142 -193q-54 -114 -51 -231t121 -108q69 5 153.5 79t156.5 166q94 123 129 217q36 100 36 214q-1 158 -68.5 329t46.5 353q76 123 218 152q70 13 151.5 7.5
t144.5 -0.5q40 3 60 32.5t21 32.5q1 4 12 3q14 0 13 -7q-19 -144 -148 -164q-108 -17 -240 -3t-196 -110q-18 -35 -34 -86.5t-13 -96.5q4 -108 45 -217.5t45 -208.5q2 -75 -15 -134.5t-33 -104.5q-19 -51 -60 -120t-82 -125q56 44 108 94q16 15 32 -2q15 -19 -2 -32
q-124 -120 -277 -215q-138 -125 -266 -125t-163.5 99.5t41.5 257.5q75 157 210.5 275t263.5 118z" />
    <glyph glyph-name="afii10067" unicode="&#x432;" horiz-adv-x="904" 
d="M856 1282l-156 -249q-2 -4 0 -6q1 -4 7 0q49 33 98 56t95 55q33 22 106 75.5t139.5 118t104 130.5t-0.5 114q-16 20 -37 33.5t-60 -4.5q-79 -35 -165.5 -144t-130.5 -179zM922 355q-143 -137 -317 -239v2.5v3.5q-177 -126 -312 -126q-144 0 -182 89t10 199q29 66 92 166
t147 236q2 6 2 7q0 7 -6 -1q-148 -159 -203.5 -233t-76.5 -94q-18 -16 -32 2q-16 18 2 32q45 55 133.5 162.5t238.5 241.5q12 9 24.5 29t24.5 30l251 408q18 31 131.5 168.5t267.5 207.5q30 12 62 26t68 13q58 -3 101.5 -35t37.5 -109t-102 -165.5t-156 -136.5
q-143 -112 -293 -204.5t-209 -132.5l-168 -279q-45 -74 -96 -163t-99 -165q-25 -40 -48 -88t12 -96q33 -45 123 -39q119 9 243 106.5t196 210.5q74 115 43.5 190t-101.5 82q-100 8 -175 -85q-21 -29 -38 -6q-14 15 2 35q41 55 103 93q78 47 169 47q127 0 152 -98.5
t-76 -255.5q-20 -33 -47 -66q30 25 71 64q16 15 32 -2q15 -18 -2 -32z" />
    <glyph glyph-name="afii10068" unicode="&#x433;" horiz-adv-x="689" 
d="M718 348l-323 -289q-50 -42 -122 -52.5t-111 19.5q-32 24 -34.5 77t32.5 107l310 289q60 57 15 132q-21 32 -61 27t-69 -32l-287 -267q-18 -14 -32 3q-16 18 2 32l336 313q45 44 114 47.5t113 -29.5q33 -26 30 -80.5t-36 -108.5q-80 -75 -152 -141t-151 -140
q-30 -51 -21.5 -99.5t49.5 -50.5q13 -1 34 -0.5t42 18.5l293 260q16 16 32 -2q14 -18 -3 -33z" />
    <glyph glyph-name="afii10069" unicode="&#x434;" horiz-adv-x="766" 
d="M563 728q69 0 120.5 -69.5t-64.5 -193.5q-19 -19 -32 -6q-18 12 -3 29q49 63 38.5 118t-83.5 64q-75 0 -141 -45t-117 -107q-22 -27 -40.5 -49t-33.5 -55q-27 -54 -48 -119t-17 -114q8 -115 135 -105q77 5 184 106q83 77 157 177t134 196q77 125 142.5 284.5t94.5 292.5
q15 70 18.5 182.5t-41.5 172.5q-53 71 -186 35q-93 -26 -151 -157q-53 -123 -58 -304q0 -39 -29 -26q-29 12 -30 50q-6 137 46 271q36 95 118 205t200 103q128 -8 171 -105q31 -71 36 -163q3 -96 -17 -192.5t-46 -177.5q-44 -138 -92 -248q-52 -120 -123 -235
q-39 -63 -81.5 -126t-90.5 -123q61 47 110 95q16 16 32 -2q14 -19 -3 -32q-129 -126 -301 -230q-59 -49 -126.5 -85t-130.5 -36q-196 0 -205 181q-5 79 42 176q61 128 182 226q67 55 154 98t176 43z" />
    <glyph glyph-name="afii10070" unicode="&#x435;" horiz-adv-x="643" 
d="M188 355q175 49 331 142q37 22 67.5 69.5t25.5 87.5q-3 23 -14 43t-52 20q-69 0 -163.5 -109.5t-179.5 -220.5q-5 -10 -15 -32zM572 475q-165 -105 -410 -192q-23 -82 -3 -138.5t111 -49.5q117 7 214 104q45 45 92 97.5t99 101.5q16 16 32 -2q15 -18 -3 -32
q-90 -104 -231 -229.5t-282 -125.5q-128 0 -168 97t50 247q94 156 234 284.5t268 128.5q119 0 144 -75q25 -79 -34 -130.5t-113 -85.5z" />
    <glyph glyph-name="afii10072" unicode="&#x436;" horiz-adv-x="1664" 
d="M1696 647q7 -50 -33 -111q-20 -31 -34 -33q-9 -1 -19.5 1.5t-0.5 32.5q19 66 -27 106q-19 17 -47 17q-59 -2 -128 -73q-47 -49 -85.5 -109.5t-62.5 -96.5q-69 -105 -82.5 -205t104.5 -91q59 4 131 58.5t115 96.5q13 14 41 40.5t64 59.5q32 30 48 9t1 -36
q-108 -110 -241 -211t-257 -100q-128 0 -148.5 98.5t71.5 248.5q32 50 51 74q7 11 6 15q-2 3 -13 -5q-78 -62 -158 -130t-159 -134q-48 -40 -88 -80t-88 -73q-15 -12 -37 -6q-20 5 -11 24q6 12 36 37t43 42q33 44 52 103q18 56 30.5 116t58.5 137q8 13 2 13q-4 1 -12 -8
q-120 -117 -254.5 -220t-237.5 -166l-2 2q-45 -33 -92 -55q-54 -26 -121 -32q-42 -3 -77 12.5t-43 66.5q-9 49 32 111q20 30 34 33q33 6 21 -34q-9 -29 -11 -66t19 -55q20 -17 60 -17q64 2 140 83q48 51 88.5 112.5t65.5 98.5q69 104 82 204t-105 92q-59 -5 -118.5 -59
t-101.5 -96q-15 -15 -42.5 -41t-62.5 -59q-33 -31 -48 -9q-17 20 -1 36q108 109 228 210t245 101q128 0 148 -99t-71 -248q-27 -43 -47 -69q-6 -9 -4 -11q1 -4 9 2q95 72 189 152t181 164q23 23 43.5 46.5t44.5 47.5q12 12 42 12q40 -3 22 -27q-15 -21 -29.5 -36.5
t-26.5 -31.5q-35 -45 -58 -112q-22 -60 -28 -118t-63 -137q-6 -24 -13 -16q1 -11 14 -1q71 57 171 141t194 154q54 40 111.5 82.5t119.5 71.5q56 26 109 32q105 9 121 -79z" />
    <glyph glyph-name="afii10073" unicode="&#x437;" horiz-adv-x="833" 
d="M162 247q0 1 -22.5 -3.5t-41.5 -22.5q-30 -30 -23.5 -67.5t26.5 -57.5q44 -46 137 -42q127 3 193 69q51 51 61 123t-56 107q-39 20 -87.5 18.5t-61.5 -0.5q-21 1 -21 9t-1 17q-6 26 17 26q33 3 71 0.5t76 -1.5q57 0 96 16q30 12 64.5 55t40.5 87q8 62 -49.5 79.5
t-103.5 4.5q-79 -22 -141.5 -69.5t-124.5 -95.5q-38 -30 -73 -58.5t-65 -56.5q-17 -17 -32 2q-15 16 3 32l251 204q74 60 148.5 94.5t176.5 28.5q88 -7 122 -63q37 -62 16.5 -123t-72.5 -103q-63 -51 -134 -59q-15 -4 -4 -9q58 -35 75 -86q11 -39 7 -69q103 64 198 156
q16 16 32 -2q15 -18 -3 -32q-110 -107 -256 -202q-45 -67 -142 -110q-51 -23 -100 -29.5t-91 -9.5q-52 -3 -122.5 3t-116.5 42q-47 36 -57.5 96t52.5 110q16 13 63.5 21.5t80.5 0.5q8 -4 7 -16q0 -14 -13 -14z" />
    <glyph glyph-name="afii10074" unicode="&#x438;" horiz-adv-x="1052" 
d="M1088 356l-311 -296q-81 -75 -160 -55.5t-2 140.5l267 426l-615 -511q-85 -70 -161.5 -53t-0.5 138l256 416q9 15 22 36t7 28q-13 12 -32 1t-34 -25l-281 -267q-17 -17 -32 2q-15 15 2 32l312 296q80 76 158.5 56t3.5 -141l-256 -416q-9 -16 -22 -37t-7 -27
q12 -13 31 -1.5t35 24.5l692 572l12 19q9 14 56 11q46 -4 44 -9l-331 -552q-10 -16 -23 -37t-7 -27q12 -13 31.5 -2t34.5 25l281 268q17 15 32 -2q15 -19 -2 -32z" />
    <glyph glyph-name="afii10076" unicode="&#x43a;" horiz-adv-x="993" 
d="M895 1252l-156 -249q-4 -4 -1 -6q1 -4 8 0q48 33 97 62t95 61q68 48 124.5 92.5t90.5 67.5q47 30 117 115t17 151q-16 19 -37 32.5t-60 -3.5q-79 -36 -165.5 -144.5t-129.5 -178.5zM783 649q29 29 46 50.5t52 34.5q45 16 93 6t58 -46q10 -40 -25 -98q-22 -9 -52 -13
t-51 12q-18 12 -23 33.5t-21 14.5q-52 -22 -106 -93t-113 -107q-9 -6 -18 -10t-18 -9q-10 -5 -10 -6q0 -2 8 -7q23 -16 36 -27q28 -26 36 -62q9 -45 -15.5 -95.5t-43.5 -87.5q-34 -68 11 -75q29 -6 71 13.5t64 40.5l281 267q16 15 32 -2q14 -16 -2 -32l-312 -296
q-81 -75 -217.5 -65.5t-59.5 129.5q34 42 62.5 131t-22.5 116q-12 6 -52.5 13t-68.5 5q-22 -2 -25 -8l-232 -361q-18 -15 -50 -9t-59 6l-13 34q93 152 186.5 304.5t187.5 305.5q2 6 2 7q0 3 -6 -1q-119 -105 -215.5 -198.5t-117.5 -113.5q-19 -15 -33 2q-15 18 3 32
q48 49 155 163t271 246q32 26 49 39l250 408q19 30 128 174t263 214q66 30 138 27q58 -3 101.5 -35t37.5 -109q-6 -78 -102 -162t-156 -132q-143 -112 -293 -209t-209 -137l-242 -399q-20 -35 -7 -45q9 -9 49 -7q51 1 82 12q45 15 122 97t115 120z" />
    <glyph glyph-name="afii10077" unicode="&#x43b;" horiz-adv-x="960" 
d="M1018 361l-312 -296q-81 -75 -162.5 -56t-6.5 141l245 403q32 53 -4 65q-40 14 -71.5 -10.5t-52.5 -48.5q-95 -107 -196 -240t-228 -250q-24 -22 -65 -45t-71 -26q-58 -9 -110 26q-73 50 -7 154q18 29 74 39q33 5 35 -17q0 -10 -11 -28q-36 -60 23.5 -80.5t114.5 33.5
q51 48 155 176.5t200 238.5q34 39 75.5 87.5t93.5 73.5q37 18 75 18q60 -2 80 -37q20 -39 8.5 -94t-26.5 -81l-203 -339q-10 -16 -23 -37t-7 -27q13 -13 32 -2t34 26l281 267q17 15 32 -2q14 -17 -2 -32z" />
    <glyph glyph-name="afii10078" unicode="&#x43c;" horiz-adv-x="1398" 
d="M1150 584l-427 -514q-74 -82 -175 -58.5t-26 145.5l245 403q33 53 3 63q-48 17 -85.5 -20t-61.5 -65q-90 -105 -186 -229.5t-215 -234.5q-24 -22 -65 -45t-71 -27q-58 -8 -110 27q-73 50 -7 154q9 16 32.5 26t41.5 13q35 5 35 -16q0 -12 -10 -29q-36 -60 23 -80.5
t114 33.5q94 94 192 219.5t189 226.5q41 44 95 96t123 52q60 -2 80 -37q20 -39 1.5 -93t-33.5 -80l-204 -339q-9 -16 -19.5 -43.5t-4.5 -33.5q20 -18 45.5 1t38.5 34q53 60 117.5 133.5t127.5 150.5t122.5 150t118.5 124q39 33 80 33q60 -2 80 -37q21 -39 9.5 -94t-26.5 -81
l-204 -339q-9 -16 -22.5 -37t-6.5 -27q12 -13 31.5 -2t34.5 26l281 268q17 13 32 -3q14 -16 -2 -32l-312 -296q-81 -75 -158.5 -56t-3.5 141l245 403q31 51 -12 65q-29 10 -52 -5.5t-38 -33.5z" />
    <glyph glyph-name="afii10079" unicode="&#x43d;" horiz-adv-x="989" 
d="M1062 364l-312 -297q-81 -75 -159.5 -55t-1.5 140l122 195q-73 -53 -118 -57q-46 -5 -84 26.5t-83 32.5q-36 0 -67 -22t-63 -40l-169 -269q-9 -15 -56 -10q-49 2 -45 9l332 551q9 15 22 36.5t7 27.5q-13 13 -32 1.5t-34 -24.5l-281 -268q-18 -15 -32 2q-15 16 2 33
l312 296q80 75 159 55.5t3 -140.5l-154 -245q40 24 84.5 51t88.5 30q39 3 66.5 -27t66.5 -29q28 0 60.5 19t64.5 41l185 294q8 12 56 11q46 -5 44 -9l-331 -552q-10 -16 -23 -37.5t-7 -27.5q12 -13 31.5 -1.5t34.5 25.5l281 268q17 13 32 -3q14 -17 -2 -31z" />
    <glyph glyph-name="afii10080" unicode="&#x43e;" horiz-adv-x="727" 
d="M560 768q127 0 155.5 -107.5t-46.5 -265.5q-43 -86 -101 -157q47 31 76.5 65.5t82.5 85.5q16 15 32 -2q15 -18 -2 -32q-129 -124 -293 -225q-156 -134 -288 -134q-128 0 -163.5 99t40.5 258q76 157 227.5 286t279.5 129zM506 680q-107 0 -195 -81t-142 -193
q-55 -113 -35.5 -223.5t138.5 -101.5q118 8 199 105t135 210q54 112 30 198t-130 86z" />
    <glyph glyph-name="afii10081" unicode="&#x43f;" horiz-adv-x="1024" 
d="M19 373l311 296q81 76 159.5 56t2.5 -141l-267 -426l615 511q84 71 160.5 53.5t1.5 -138.5l-256 -416q-10 -16 -23 -37t-6 -27q12 -13 31.5 -2t34.5 26l281 267q16 16 32 -2q14 -17 -3 -32l-311 -296q-81 -75 -159.5 -55.5t-2.5 140.5l256 416q9 15 22 36.5t7 27.5
q-13 12 -32 0.5t-34 -23.5l-692 -572l-12 -19q-9 -15 -56 -11q-47 3 -44 9l331 552q9 15 22.5 36.5t7.5 27.5q-13 12 -32.5 1t-33.5 -24l-282 -268q-17 -17 -32 2q-15 18 3 32z" />
    <glyph glyph-name="afii10082" unicode="&#x440;" horiz-adv-x="982" 
d="M59 468q163 131 293 196.5t230 83.5q27 45 54.5 89.5t54.5 89.5q25 24 70 24q41 -2 36 -24l-104 -174q126 -13 185 -99.5t59 -180.5q0 -92 -54 -184q56 41 116 100q16 15 32 -2q15 -18 -2 -32q-139 -135 -317 -239q-154 -100 -340 -100q-59 0 -115 11l-380 -634
q-25 -44 -91 -40q-62 5 -47 28q103 169 206 337t208 336q-45 15 -109 41q-46 18 -16 57t81 8q38 -26 82 -45q83 135 166.5 270t167.5 271q-51 -8 -105 -27q-121 -43 -317 -221q-44 -41 -69 -11t25 71zM289 80q135 -35 242.5 4.5t177.5 105.5q81 77 111.5 193.5t-59.5 209.5
q-47 48 -127 62z" />
    <glyph glyph-name="afii10083" unicode="&#x441;" horiz-adv-x="650" 
d="M553 770q174 0 163 -184q-2 -29 -28 -35.5t-46 -3.5q-53 7 -49 53q3 43 -4.5 74.5t-74.5 31.5q-107 0 -193 -109t-140 -221q-55 -113 -53 -207.5t120 -85.5q117 9 215 105q45 45 94.5 91t101.5 96q16 15 32 -2q15 -18 -2 -32q-96 -92 -237.5 -217t-282.5 -125
q-128 0 -163.5 99t40.5 257q76 157 227.5 286t279.5 129z" />
    <glyph glyph-name="afii10084" unicode="&#x442;" horiz-adv-x="1462" 
d="M3 370l312 296q80 76 158.5 56t3.5 -141l-201 -319q241 225 506 404q92 61 164.5 48.5t-2.5 -133.5l-217 -346l518 431q85 70 161 53t1 -138l-256 -416q-10 -16 -23 -37t-6 -27q12 -13 31.5 -2t34.5 25l281 268q17 13 32 -2q15 -18 -2 -32l-312 -296
q-81 -75 -159.5 -55.5t-2.5 139.5l256 417q9 15 22 36t7 28q-13 12 -32 0t-34 -24l-595 -492l-62 -99q-9 -14 -56 -10q-48 3 -45 9l17 27q-2 9 10 19l3 3l302 503q9 15 22 36t7 28q-13 12 -31.5 -0.5t-34.5 -23.5q-161 -110 -309.5 -234.5t-289.5 -259.5q-2 -4 -5 -5
l-57 -92q-9 -14 -57 -10q-47 4 -44 9l332 552q9 15 22 36t7 28q-13 12 -32.5 1t-33.5 -25l-281 -268q-18 -14 -32 3q-15 16 2 32z" />
    <glyph glyph-name="afii10085" unicode="&#x443;" horiz-adv-x="1038" 
d="M182 -538l156 249q1 5 0 7q-2 2 -7 -1q-49 -33 -98 -62t-94 -61q-69 -47 -125 -92t-89 -67q-48 -31 -118 -116t-17 -151q16 -19 37 -32.5t60 3.5q78 36 164 145t131 178zM737 406q-140 -138 -296 -262.5t-282 -150.5q-60 -12 -89.5 23.5t25.5 122.5l256 416q9 15 22 36.5
t7 27.5q-13 12 -32 1t-34 -24l-281 -268q-18 -15 -32 2q-16 17 2 32l312 296q80 76 158.5 56t3.5 -141l-255 -416q-10 -16 -23.5 -37t-6.5 -27q16 -16 78 21q47 27 112 73t137 106q57 48 115 99.5t112 100.5q55 52 100 96t85 110q18 15 49.5 8t58.5 -6l14 -33
q-94 -153 -187.5 -305.5t-186.5 -305.5q-3 -3 -3 -7q2 -3 7 1q118 105 215 198t118 114q16 15 32 -2q15 -18 -2 -32q-49 -50 -156 -164t-270 -243q-32 -26 -49 -39l-251 -409q-19 -30 -128 -173.5t-263 -213.5q-67 -30 -136 -28q-59 3 -102.5 35.5t-37.5 109.5t102 161.5
t156 131.5q141 112 291 209t210 137l337 555q5 8 3 13q-4 5 -15 -5z" />
    <glyph glyph-name="afii10086" unicode="&#x444;" horiz-adv-x="1558" 
d="M587 752q58 0 102 -8.5t66 -44.5q31 -52 9.5 -95t-56.5 -82q-35 -38 -67 -51q-16 -6 -25 -4q-28 2 -11 20q18 19 37.5 37t28.5 48q12 37 -3.5 78.5t-80.5 41.5q-107 0 -195 -103.5t-158 -208.5q-69 -105 -78 -205t109 -91q58 4 130.5 58.5t114.5 96.5q112 111 210 207
t182 231l335 539q44 72 148 175.5t221 164.5q42 22 84 40.5t81 17.5q138 -6 147 -100q3 -26 -0.5 -62t-19.5 -71q-25 -55 -76.5 -91t-119.5 -75q-21 -12 -31 0q-18 21 2 32q113 63 133 138.5t8 99.5q-28 52 -81 56t-100 -23q-75 -44 -135.5 -131.5t-78.5 -115.5l-464 -735
q-6 -16 0 -17q4 -2 15 8q99 89 207.5 157t208.5 68q127 0 153 -108.5t-65 -257.5q-32 -53 -75 -103q75 45 149 107q15 13 32 -1q15 -16 -3 -28q-128 -108 -300 -199q-87 -73 -172.5 -117t-139.5 -44q-59 0 -103 8.5t-65 44.5q-32 51 -10.5 94t57.5 83q34 37 67 51q15 5 25 5
q26 -5 11 -21q-19 -20 -38 -38t-28 -47q-12 -38 3 -79t81 -41q106 0 194 103t159 209q69 104 77.5 204t-108.5 92q-60 -5 -137.5 -50.5t-119.5 -87.5q-33 -33 -73.5 -66.5t-71.5 -66.5q-42 -44 -73 -89.5t-62 -96.5l-427 -673q-19 -30 -141 -159.5t-277 -195.5
q-129 -54 -249.5 -29.5t-111.5 160.5q5 57 43.5 97.5t85.5 69.5q87 54 188 74q15 5 27 -18q8 -14 -22 -23q-15 -6 -53 -17.5t-70 -33.5q-12 -8 -31.5 -23.5t-32.5 -41.5q-24 -44 -4 -113q20 -65 75.5 -74.5t111.5 8.5q81 27 179.5 132.5t143.5 174.5l486 777q8 25 8 27
q-2 3 -21 -16q-108 -108 -241.5 -211.5t-250.5 -102.5q-128 0 -154 108t65 258q97 159 258.5 272t251.5 113z" />
    <glyph glyph-name="afii10087" unicode="&#x445;" horiz-adv-x="982" 
d="M1054 731q-3 -39 -24 -77t-59 -52q-55 -20 -148 9l-187 -193l105 3v-45l-121 -4q-32 -94 -47 -161q-12 -57 -14.5 -93.5t48.5 -32.5q107 6 200 99q45 45 95 91t102 96q17 14 31 -2q14 -18 -2 -33q-96 -91 -226 -215t-271 -124q-46 0 -67.5 38t-16.5 95q2 27 41 140
l-276 -283l-32 30l1 2q-87 50 -155 -32l-28 6q6 104 107 142q89 33 192 4l224 230l-125 -4v45l139 5q36 114 43 177q5 64 -54 58q-40 -5 -102 -35t-104 -72q-45 -45 -95 -92t-101 -95q-17 -16 -32 2q-15 15 2 32q96 90 237 216.5t283 126.5q99 2 75 -134q-5 -27 -21 -80
l219 226q30 -22 58.5 -41.5t82.5 31.5z" />
    <glyph glyph-name="afii10088" unicode="&#x446;" horiz-adv-x="1011" 
d="M574 -130q2 0 6.5 -16t-8.5 -22q-21 -6 -28.5 -27.5t-6.5 -39.5q4 -65 60 -53q33 6 75 47q35 35 35 97q-1 27 -4 37.5t5 49.5q5 29 25 75q4 12 0 12q-5 0 -13 -6q-76 -46 -133 -18t11 134l267 427l-615 -512q-85 -69 -161.5 -52.5t-0.5 137.5l256 416q9 15 22 36.5
t7 27.5q-13 13 -32 1.5t-34 -24.5l-281 -268q-18 -15 -32 2q-15 17 3 33l311 295q80 76 158.5 56t3.5 -140l-256 -416q-9 -17 -22 -38t-7 -27q12 -13 31.5 -1t34.5 25l692 572l12 19q8 13 56 10q47 -2 44 -9l-331 -551q-10 -17 -23 -38t-7 -27q12 -13 31.5 -1.5t34.5 25.5
l281 268q18 14 32 -3t-2 -32l-192 -182q-68 -65 -70 -119q-3 -35 0 -70t3 -70q-3 -108 -97 -178t-149 -70q-116 0 -116 83q0 50 34.5 87.5t89.5 37.5z" />
    <glyph glyph-name="afii10089" unicode="&#x447;" horiz-adv-x="734" 
d="M666 674q-91 -90 -141.5 -156t-143.5 -180q-85 -101 -95 -193q-3 -25 11.5 -47t50.5 -15q103 19 185 101q45 45 95 91t102 96q17 14 32 -2q14 -18 -2 -32q-75 -72 -179.5 -169.5t-215.5 -145.5q-55 -22 -122 -27.5t-100 60.5q-28 55 0 123.5t64 111.5q39 46 89 83t103 88
q45 44 85 88q-38 -12 -78 0q-52 15 -88 67q-13 18 -29 2l-241 -229q-18 -15 -32 3q-14 16 3 32l311 296q10 9 32 25q27 18 34 -4q11 -46 44 -87t89 -30q29 4 80 68q10 13 39.5 3.5t17.5 -21.5z" />
    <glyph glyph-name="afii10090" unicode="&#x448;" horiz-adv-x="1455" 
d="M1504 356l-312 -296q-81 -75 -159.5 -55.5t-2.5 139.5l200 319q-115 -107 -240 -208.5t-265 -194.5q-93 -61 -165.5 -48.5t3.5 132.5l217 346l-518 -430q-86 -70 -162.5 -53t0.5 137l255 417q9 15 22.5 36t7.5 28q-13 12 -32.5 1t-33.5 -25l-281 -268q-18 -14 -32 3
q-15 16 2 32l312 296q80 76 158.5 56t3.5 -141l-256 -416q-10 -16 -23 -37t-6 -27q12 -13 31 -1.5t35 24.5l595 493l62 98q9 15 56 11q48 -5 44 -9l-16 -28q2 -9 -10 -19l-3 -2l-302 -503q-9 -16 -22.5 -37t-6.5 -27q12 -13 30.5 -1t35.5 24q160 109 308.5 234t289.5 261
q2 1 5 4l58 92q9 15 56 11t45 -9l-332 -552q-10 -16 -23 -37t-6 -27q12 -13 31.5 -2t34.5 25l281 268q17 14 32 -2q14 -18 -2 -32z" />
    <glyph glyph-name="afii10091" unicode="&#x449;" horiz-adv-x="1433" 
d="M1504 356l-154 -147q-45 -42 -63 -75q-28 -46 -28 -82q-2 -34 0.5 -69t2.5 -68q-3 -108 -97 -178.5t-149 -70.5q-116 0 -116 83q0 50 35 87.5t89 37.5q2 0 6.5 -16.5t-8.5 -20.5q-21 -6 -28.5 -28t-6.5 -40q4 -63 60 -53q33 6 75 47q35 35 35 97q-1 27 -4 37.5t5 49.5
q8 40 36 102q3 7 0 7q-4 2 -7 -1q-81 -71 -156 -50.5t0 139.5l200 319q-115 -107 -240.5 -208.5t-265.5 -194.5q-92 -61 -165 -48.5t4 132.5l217 346l-519 -430q-85 -70 -161.5 -53t-0.5 137l256 417q9 15 22 36t7 28q-13 12 -32 1t-33 -25l-282 -268q-18 -15 -32 3
q-15 16 3 32l311 296q80 76 158.5 56t3.5 -141l-255 -416q-10 -16 -23 -37t-7 -27q12 -13 31.5 -1.5t34.5 24.5l596 493l61 98q9 14 57 11q46 -5 44 -9l-17 -28q2 -9 -10 -19l-3 -2l-301 -503q-10 -16 -23 -37t-7 -27q12 -13 30.5 -1t35.5 24q160 109 309 234t290 261
q1 0 2 1.5t3 2.5l58 92q8 14 56 11q46 -4 44 -9l-331 -552q-10 -16 -23 -37t-7 -27q12 -13 31.5 -2t34.5 25l281 268q18 14 32 -2q15 -19 -2 -32z" />
    <glyph glyph-name="afii10092" unicode="&#x44a;" horiz-adv-x="876" 
d="M344 260l-15 -26q-18 -63 -4 -125.5t103 -62.5q103 0 168 70q16 18 22 26q9 21 27 40q24 41 33 88t-14 87q-18 31 -83 31q-70 -1 -118 -48.5t-66 -78.5q-10 -16 -20 -16q-17 0 -28 10zM926 343q-79 -76 -167 -140q-36 -77 -137 -142t-227 -65q-114 0 -151 74.5t-17 159.5
q9 43 39 87q29 44 69 82.5t75 72.5q38 35 86 87q-40 -12 -78 0q-52 15 -88 67q-14 19 -29 2l-247 -241q-18 -14 -32 2q-15 16 2 33l318 308q16 14 31 25q28 19 35 -4q11 -46 44 -87t89 -30q27 4 79 68q11 13 40 3.5t17 -21.5q-86 -84 -134.5 -147.5t-130.5 -163.5
q-8 -15 -7 -15q4 -4 11 4q36 35 93.5 72.5t117.5 37.5q102 0 136.5 -58.5t21.5 -132.5q55 42 111 96q16 16 32 -2q15 -18 -2 -32z" />
    <glyph glyph-name="afii10093" unicode="&#x44b;" horiz-adv-x="1193" 
d="M1219 349l-312 -296q-81 -75 -159.5 -55.5t-2.5 139.5l244 389l-399 -368q-49 -63 -138.5 -110.5t-195.5 -47.5q-145 0 -167 114t35 208l124 186q4 8 1 12q-4 4 -11 -3l-183 -173q-17 -15 -31 3q-15 16 2 32l350 323q8 8 61 6q36 0 23 -23l-192 -318q-6 -14 -5 -14
q1 -2 14 11q36 35 93.5 72.5t117.5 37.5q108 0 140.5 -64t14.5 -142l438 404l21 34q8 13 56 11q48 -5 44 -9l-331 -552q-9 -16 -22.5 -37t-6.5 -27q12 -13 31.5 -2t34.5 25l281 268q17 14 32 -2q15 -18 -2 -32zM206 263l-16 -26q-18 -64 -4 -126t104 -62q106 0 158.5 61.5
t81.5 127.5q27 66 -4 122q-19 31 -84 30q-70 0 -117.5 -47.5t-65.5 -78.5q-11 -16 -21 -16q-18 0 -28 9q-2 2 -4 6z" />
    <glyph glyph-name="afii10094" unicode="&#x44c;" horiz-adv-x="756" 
d="M21 383l350 324q6 6 62 6q35 -2 22 -24l-192 -318q-6 -14 -5 -14q1 -2 14 11q36 36 93.5 73.5t117.5 37.5q103 0 137.5 -59.5t19.5 -134.5q54 40 122 104q16 16 32 -2q15 -18 -2 -32q-80 -77 -178 -148q-38 -76 -138.5 -140t-224.5 -64q-145 0 -167 114.5t35 208.5
l124 186q4 8 1 12q-4 3 -11 -2l-182 -173q-18 -16 -33 2t3 32zM200 267l-15 -26q-18 -63 -4 -125.5t104 -62.5q105 0 158 61.5t81 127.5q29 65 -3 122q-18 31 -84 31q-70 -1 -117.5 -48.5t-65.5 -78.5q-11 -16 -21 -16q-17 0 -28 10z" />
    <glyph glyph-name="afii10095" unicode="&#x44d;" horiz-adv-x="720" 
d="M576 429q42 102 33 181.5t-117 72.5q-87 -6 -150 -54.5t-121 -103.5l-140 -134q-18 -14 -32 2q-16 18 2 32q48 45 108.5 104.5t128.5 113.5q67 52 139 88.5t144 36.5q127 0 162.5 -99.5t-40.5 -257.5q-31 -64 -80 -131q68 51 128 109q16 16 32 -2q14 -19 -3 -32
q-136 -131 -311 -236q-151 -122 -272 -122q-174 0 -164 183q1 28 27.5 35t47.5 4q53 -8 48 -53q-4 -44 4 -74.5t76 -30.5q100 0 183 98t138 207q-70 -51 -113 -55q-43 -5 -79 25t-78 31q-34 0 -82 -32q-11 -8 -18 4t3 17q39 23 82.5 50.5t86.5 30.5q36 3 62.5 -25.5
t63.5 -27.5q37 0 101 45z" />
    <glyph glyph-name="afii10096" unicode="&#x44e;" horiz-adv-x="1243" 
d="M10 368l311 296q81 76 159.5 56t2.5 -141l-110 -176q58 41 94 44q30 3 52 -25t54 -27q30 1 88 47q58 78 135.5 142.5t148.5 101.5q91 47 171 31q93 -20 102 -125q12 -144 -91 -302q-10 -16 -36 -50q48 30 79.5 64t84.5 85q16 15 32 -2q15 -18 -2 -32q-126 -122 -291 -224
q-68 -64 -139.5 -103t-130.5 -39q-128 0 -163.5 99t40.5 257q1 3 2.5 6t3.5 6q-40 -30 -68 -33q-37 -4 -67 25t-66 29q-29 1 -67 -30l-213 -338q-9 -11 -56 -10q-47 3 -44 9l331 552q9 15 22.5 36t7.5 28q-14 12 -33 1t-33 -25l-282 -268q-18 -15 -31 3q-15 16 2 32z
M1094 324q66 111 76.5 220.5t-89.5 109.5q-119 0 -241.5 -143t-157.5 -254q-27 -80 -1.5 -135t102.5 -52q89 4 194 106q66 63 70.5 71t46.5 77z" />
    <glyph glyph-name="afii10097" unicode="&#x44f;" horiz-adv-x="1003" 
d="M1041 364l-311 -296q-81 -75 -159.5 -55.5t-2.5 140.5l113 180q-95 -52 -211 -52q-12 0 -18 1q-74 -38 -132 -104.5t-121 -121.5q-68 -58 -136.5 -56.5t-97.5 42.5q-33 45 -16 100t87 61q11 0 18 -7q11 -14 -3 -24q-18 -12 -19 -36q-3 -56 61 -59q40 -3 80 24t67 51
q41 36 81 73.5t83 62.5q-96 21 -138.5 94t-6.5 152q32 71 102 115t142 64q56 15 131.5 17t133.5 -27q65 -35 78 -106l79 125q8 13 56 10q48 -5 44 -9l-331 -552q-10 -16 -23 -37t-6 -27q12 -13 31.5 -2t34.5 26l281 268q16 14 32 -3q13 -17 -3 -32zM421 609q-26 -30 -45 -78
q-34 -80 4 -142q38 -70 143 -65q116 5 167 57t79 118t-13.5 124t-147.5 58q-50 0 -102 -16.5t-85 -55.5z" />
    <glyph glyph-name="afii10023" unicode="&#x401;" horiz-adv-x="1561" 
d="M1419 501q-3 66 -34 124q-62 119 -192 150q-78 19 -154 -3q-107 -29 -155 -93.5t-40.5 -122t70 -86.5t178.5 13q13 2 12 -39q-47 -27 -113 -52.5t-131 -13.5q-66 11 -109 56t-16 155q15 61 83.5 126t164.5 92q162 43 339 12t246 -235q21 -64 -2 -150t-74 -153
q-51 -69 -118 -110.5t-122 -68.5q-104 -52 -223.5 -72t-236.5 -12q-197 13 -357 84q-168 75 -263 199.5t-95 270.5q0 138 91.5 271.5t252.5 232.5q160 98 359 146q-42 113 -8 239q30 117 120.5 201.5t195.5 140.5q176 93 378 93q221 0 359 -95q24 -17 46 -2q34 23 68 35
q16 6 26.5 -12.5t-3.5 -27.5l-184 -124q-3 3 -13.5 -0.5t-31.5 16.5q-116 113 -282 137q-189 25 -346 -74t-187 -264q-26 -137 21 -235q57 6 108 12.5t101 6.5q101 -2 227 -20t125 -147q-44 -120 -232 -120q-284 0 -419 132q-30 28 -51 69q-159 -45 -285 -143
q-117 -90 -184.5 -211.5t-67.5 -253.5t69 -240t186 -176q194 -114 446 -93q238 19 370 183q94 117 87 252zM961 1211q68 -102 205 -155q45 -18 143.5 -25t126.5 52q24 52 -8 82t-86 44.5t-112 17.5t-84 2q-55 -3 -105 -9t-80 -9zM1327 2050q74 0 74 -74q0 -73 -74 -73
t-74 73q0 74 74 74zM1611 2050q74 0 74 -74q0 -73 -74 -73q-73 0 -73 73q0 74 73 74z" />
    <glyph glyph-name="afii10071" unicode="&#x451;" horiz-adv-x="771" 
d="M267 355q175 49 331 142q36 22 67 69.5t26 87.5q-4 23 -14.5 43t-51.5 20q-70 0 -164.5 -109.5t-179.5 -220.5q-9 -18 -14 -32zM650 475q-161 -104 -409 -192q-24 -82 -3.5 -138.5t111.5 -49.5q117 7 214 104q45 45 94.5 91.5t101.5 95.5q17 15 32 -2q15 -19 -2 -32
q-96 -92 -237.5 -217.5t-282.5 -125.5q-128 0 -167.5 97t50.5 247q93 156 233 284.5t268 128.5q119 0 144 -75q26 -79 -33 -130.5t-114 -85.5zM577 964q74 0 74 -73q0 -74 -74 -74q-73 0 -73 74q0 73 73 73zM862 964q73 0 73 -73q0 -74 -73 -74q-74 0 -74 74q0 73 74 73z
" />
    <glyph glyph-name="afii10075" unicode="&#x439;" horiz-adv-x="1003" 
d="M1081 356l-311 -296q-81 -75 -160 -55.5t-2 140.5l267 426l-615 -511q-85 -70 -161.5 -53t-0.5 138l256 416q9 15 22 36t7 28q-13 12 -32 1t-34 -25l-281 -267q-17 -17 -32 2q-15 15 2 32l312 296q80 76 158.5 56t3.5 -141l-256 -416q-9 -16 -22 -37t-7 -27
q12 -13 31 -1.5t35 24.5l692 572l12 19q9 14 56 11q46 -4 44 -9l-331 -552q-10 -16 -23 -37t-7 -27q12 -13 31.5 -2t34.5 25l281 268q17 15 32 -2q15 -19 -2 -32zM1050 975q-62 -165 -260 -165q-63 0 -155 32.5t-72 119.5q10 49 51 67q36 15 76.5 -0.5t37.5 -46.5
q-5 -50 -36 -52t-46 9q-22 15 -30 -10q-7 -13 3 -25q24 -33 78 -47t92 -14q87 0 151.5 40t77.5 101q4 21 20 21q22 -2 12 -30z" />
    <glyph glyph-name="afii10053" unicode="&#x404;" horiz-adv-x="1416" 
d="M153 345q-52 165 -9 352t135 366q108 210 269 393.5t358 313.5q167 110 338.5 155t324.5 43q162 -2 290 -67t134 -248q5 -113 -73.5 -209.5t-186.5 -140.5q-139 -56 -239.5 -22.5t-130.5 123.5q-17 54 -8 132.5t77 120.5q21 13 55.5 40.5t74.5 19.5q15 -2 13.5 -20.5
t-18.5 -23.5q-111 -34 -108.5 -134t73.5 -160q49 -41 120.5 -42.5t149.5 69.5q136 123 34 316q-60 114 -168 149t-216 30q-147 -6 -283.5 -66.5t-243.5 -132.5q-201 -138 -358 -357q-77 -105 -131 -203.5t-86 -221.5q-70 -275 -29 -456q27 -114 107.5 -210t196.5 -126
q144 -36 305.5 12.5t251.5 138.5q96 64 135 185.5t5 236.5q-25 90 -97 140q-93 68 -170 62q-64 -5 -129 -50t-99 -108q-44 -83 -10 -160q26 -54 96 -75q99 -31 158 60q15 8 29 -4.5t5 -24.5q-27 -62 -89.5 -95t-86.5 -38q-90 -19 -145.5 9t-77.5 81q-27 70 -2.5 161.5
t95.5 158.5q48 45 102 77t99 50q103 42 224 30.5t190 -110.5q28 -40 35.5 -104.5t-1.5 -123.5q-21 -160 -151 -313q-132 -155 -330.5 -246t-375.5 -64q-55 8 -106 30q-37 14 -153.5 76t-168.5 225zM1173 1130q-112 -100 -227 -133q-73 -19 -155 27.5t-157 57.5
q-33 5 -52.5 -19.5t-58.5 -49.5q-10 -6 -20 1q-18 18 -2 32q54 49 95 85.5t138 50.5q68 11 141 -27t140 -45q41 -4 74.5 14.5t60.5 33.5q20 13 26 0q9 -18 -3 -28z" />
    <glyph glyph-name="afii10101" unicode="&#x454;" horiz-adv-x="650" 
d="M553 770q174 0 163 -184q-2 -29 -28 -35.5t-46 -3.5q-53 7 -49 53q3 43 -4.5 74.5t-74.5 31.5q-107 0 -193 -109t-140 -221q-55 -113 -53 -207.5t120 -85.5q117 9 215 105q45 45 94.5 91t101.5 96q16 15 32 -2q15 -18 -2 -32q-96 -92 -237.5 -217t-282.5 -125
q-128 0 -163.5 99t40.5 257q76 157 227.5 286t279.5 129zM495 426q-47 -51 -96 -67q-32 -10 -66.5 13.5t-66.5 29.5q-15 2 -23 -10.5t-25 -24.5q-4 -3 -8 0q-8 9 -1 16q23 25 40.5 43.5t58.5 25.5q29 6 60 -13.5t60 -22.5q18 -2 32 7.5t26 16.5q8 7 11 0q4 -9 -2 -14z" />
    <glyph glyph-name="afii10103" unicode="&#x456;" horiz-adv-x="515" 
d="M309 342l-100 -171q-10 -16 -23 -37.5t-7 -27.5q12 -13 31.5 -1.5t34.5 25.5l281 268q17 13 32 -3q14 -17 -2 -31l-312 -297q-81 -75 -159.5 -55t-1.5 140l100 161l154 255q9 15 22 36.5t7 27.5q-13 13 -32 1.5t-34 -24.5l-281 -268q-18 -15 -32 2q-15 16 2 33l312 296
q80 75 159 55.5t3 -140.5zM527 998q73 0 73 -73q0 -74 -73 -74q-74 0 -74 74q0 73 74 73z" />
    <glyph glyph-name="afii10104" unicode="&#x457;" horiz-adv-x="515" 
d="M309 342l-100 -171q-10 -16 -23 -37.5t-7 -27.5q12 -13 31.5 -1.5t34.5 25.5l281 268q17 13 32 -3q14 -17 -2 -31l-312 -297q-81 -75 -159.5 -55t-1.5 140l100 161l154 255q9 15 22 36.5t7 27.5q-13 13 -32 1.5t-34 -24.5l-281 -268q-18 -15 -32 2q-15 16 2 33l312 296
q80 75 159 55.5t3 -140.5zM369 981q74 0 74 -73q0 -74 -74 -74q-73 0 -73 74q0 73 73 73zM654 981q73 0 73 -73q0 -74 -73 -74q-74 0 -74 74q0 73 74 73z" />
    <glyph glyph-name="afii10056" unicode="&#x407;" horiz-adv-x="1765" 
d="M1994 958l-320 -549q-80 -134 -214.5 -217.5t-301.5 -135.5q-172 -52 -376.5 -48t-356.5 62q-72 27 -130.5 79.5t-103.5 110.5q-76 94 -91 211.5t40 225.5q65 128 203 222q190 125 415 116q101 -3 205 -37.5t178 -101.5q70 -65 86 -154q20 -123 -47 -218t-178 -137
q-113 -44 -277.5 -25t-202.5 157q-17 60 1 125t78 101q22 13 64 26t87 6q15 -3 13 -22.5t-18 -23.5q-34 -10 -53.5 -17t-40.5 -44q-36 -61 -18 -127q8 -31 29 -64.5t53 -46.5q124 -52 242 18q91 55 125 165q33 105 -13 189q-62 109 -187.5 155t-248.5 25
q-183 -31 -281.5 -150.5t-100.5 -288.5q-3 -268 176 -385t411 -104q240 13 436 146q112 76 198.5 179t149.5 214q96 169 194 336.5t197 334.5q53 90 116 160.5t137 146.5q14 12 11 14q-6 3 -22 -5q-287 -161 -483 -80q-44 18 -70 53.5t-57 78.5q-3 4 -11 0l-340 -283
q-12 -9 -25 7t-2 26l532 441q21 17 32 4q1 -87 46 -165q32 -53 82.5 -72t107.5 -15q87 6 194.5 64.5t229.5 145.5q49 35 113 99q19 19 38.5 -2.5t-0.5 -39.5q-14 -14 -36.5 -32.5t-47.5 -40.5q-61 -56 -119 -121q-108 -123 -195.5 -267t-168.5 -283zM2509 2065q74 0 74 -74
q0 -73 -74 -73t-74 73q0 74 74 74zM2793 2065q74 0 74 -74q0 -73 -74 -73q-73 0 -73 73q0 74 73 74z" />
    <glyph glyph-name="uni0406" unicode="&#x406;" horiz-adv-x="1765" 
d="M1994 958l-320 -549q-80 -134 -214.5 -217.5t-301.5 -135.5q-172 -52 -376.5 -48t-356.5 62q-72 27 -130.5 79.5t-103.5 110.5q-76 94 -91 211.5t40 225.5q65 128 203 222q190 125 415 116q101 -3 205 -37.5t178 -101.5q70 -65 86 -154q20 -123 -47 -218t-178 -137
q-113 -44 -277.5 -25t-202.5 157q-17 60 1 125t78 101q22 13 64 26t87 6q15 -3 13 -22.5t-18 -23.5q-34 -10 -53.5 -17t-40.5 -44q-36 -61 -18 -127q8 -31 29 -64.5t53 -46.5q124 -52 242 18q91 55 125 165q33 105 -13 189q-62 109 -187.5 155t-248.5 25
q-183 -31 -281.5 -150.5t-100.5 -288.5q-3 -268 176 -385t411 -104q240 13 436 146q112 76 198.5 179t149.5 214q96 169 194 336.5t197 334.5q53 90 116 160.5t137 146.5q14 12 11 14q-6 3 -22 -5q-287 -161 -483 -80q-44 18 -70 53.5t-57 78.5q-3 4 -11 0l-340 -283
q-12 -9 -25 7t-2 26l532 441q21 17 32 4q1 -87 46 -165q32 -53 82.5 -72t107.5 -15q87 6 194.5 64.5t229.5 145.5q49 35 113 99q58 -24 38 -42q-14 -14 -36.5 -32.5t-47.5 -40.5q-61 -56 -119 -121q-108 -123 -195.5 -267t-168.5 -283z" />
    <glyph glyph-name="afii10062" unicode="&#x40e;" horiz-adv-x="2083" 
d="M1003 1981q232 30 435 -81t277 -311q57 -157 9.5 -353t-236.5 -391q-12 -12 -22 -23t-19 -20q199 85 425.5 215.5t397.5 280.5q78 137 162.5 275.5t182.5 262.5q116 148 175 121q51 -23 33.5 -85.5t-66.5 -135.5q-56 -84 -125 -161t-96 -105q-47 -79 -84 -146t-74 -128
l-391 -705q-129 -210 -391.5 -358t-510.5 -152q-108 -1 -263 37.5t-235 124.5q-9 9 -9.5 24t-8.5 26l243 181q4 -9 12.5 -19t-6.5 -23q-67 -57 -75 -78q-9 -21 31.5 -59.5t60.5 -53.5q120 -95 279 -98t292 63q102 49 186.5 123t141.5 146q56 69 97 131.5t78 125.5
q74 127 146.5 268t147.5 279q-165 -132 -379 -254.5t-411 -194.5q-37 -14 -118.5 -36t-90.5 -13q-38 33 -11 56q46 39 99.5 87t92.5 97q101 125 145.5 283t-6.5 332q-49 167 -192 265t-319 89q-217 -11 -399 -81.5t-314 -249.5q-85 -115 -76 -261q15 -265 212 -361.5
t432 53.5q130 84 131.5 219t-94.5 184q-75 37 -146 20t-163 -101q-8 -8 -24 4t-5 29q50 77 133 124.5t155 55.5q186 21 256 -83.5t33 -230.5q-20 -66 -75.5 -126t-112.5 -105q-118 -94 -288 -123.5t-303 2.5q-177 40 -240 201t-5 328q84 249 364.5 406t518.5 187zM2327 1998
q-62 -165 -260 -165q-63 0 -155 32.5t-72 119.5q10 48 51 67q36 15 76.5 -0.5t37.5 -46.5q-5 -50 -36 -52t-46 9q-21 14 -31 -10q-5 -13 3 -25q24 -32 78.5 -46.5t92.5 -14.5q87 0 151.5 40.5t77.5 100.5q5 22 20 21q22 0 12 -30z" />
    <glyph glyph-name="afii10110" unicode="&#x45e;" horiz-adv-x="1038" 
d="M182 -538l156 249q1 5 0 7q-2 2 -7 -1q-49 -33 -98 -62t-94 -61q-69 -47 -125 -92t-89 -67q-48 -31 -118 -116t-17 -151q16 -19 37 -32.5t60 3.5q78 36 164 145t131 178zM737 406q-140 -138 -296 -262.5t-282 -150.5q-60 -12 -89.5 23.5t25.5 122.5l256 416q9 15 22 36.5
t7 27.5q-13 12 -32 1t-34 -24l-281 -268q-18 -15 -32 2q-16 17 2 32l312 296q80 76 158.5 56t3.5 -141l-255 -416q-10 -16 -23.5 -37t-6.5 -27q16 -16 78 21q47 27 112 73t137 106q57 48 115 99.5t112 100.5q55 52 100 96t85 110q18 15 49.5 8t58.5 -6l14 -33
q-94 -153 -187.5 -305.5t-186.5 -305.5q-3 -3 -3 -7q2 -3 7 1q118 105 215 198t118 114q16 15 32 -2q15 -18 -2 -32q-49 -50 -156 -164t-270 -243q-32 -26 -49 -39l-251 -409q-19 -30 -128 -173.5t-263 -213.5q-67 -30 -136 -28q-59 3 -102.5 35.5t-37.5 109.5t102 161.5
t156 131.5q141 112 291 209t210 137l337 555q5 8 3 13q-4 5 -15 -5zM1050 975q-62 -165 -260 -165q-63 0 -155 32.5t-72 119.5q10 49 51 67q36 15 76.5 -0.5t37.5 -46.5q-5 -50 -36 -52t-46 9q-22 15 -30 -10q-7 -13 3 -25q24 -33 78 -47t92 -14q87 0 151.5 40t77.5 101
q4 21 20 21q22 -2 12 -30z" />
  </font>
</defs>
</svg>
